<mxfile host="app.diagrams.net" agent="Mozilla/5.0 (Macintosh; Intel Mac OS X 10_15_7) AppleWebKit/537.36 (KHTML, like Gecko) Chrome/127.0.0.0 Safari/537.36" version="24.7.7">
  <diagram name="PÃ¡gina-1" id="zmcN182eopEkkIX-esxQ">
    <mxGraphModel dx="2142" dy="1613" grid="1" gridSize="10" guides="1" tooltips="1" connect="1" arrows="1" fold="1" page="1" pageScale="1" pageWidth="827" pageHeight="1169" math="0" shadow="0">
      <root>
        <mxCell id="0" />
        <mxCell id="1" parent="0" />
        <mxCell id="Ls8tjAH7kymWJmCwIJN0-38" value="" style="shape=image;verticalLabelPosition=bottom;labelBackgroundColor=default;verticalAlign=top;aspect=fixed;imageAspect=0;image=data:image/png,iVBORw0KGgoAAAANSUhEUgAAAHwAAACqCAYAAABveSuMAAAACXBIWXMAAA7EAAAOxAGVKw4bAAADZWlUWHRYTUw6Y29tLmFkb2JlLnhtcAAAAAAAPD94cGFja2V0IGJlZ2luPSfvu78nIGlkPSdXNU0wTXBDZWhpSHpyZVN6TlRjemtjOWQnPz4KPHg6eG1wbWV0YSB4bWxuczp4PSdhZG9iZTpuczptZXRhLyc+CjxyZGY6UkRGIHhtbG5zOnJkZj0naHR0cDovL3d3dy53My5vcmcvMTk5OS8wMi8yMi1yZGYtc3ludGF4LW5zIyc+CgogPHJkZjpEZXNjcmlwdGlvbiByZGY6YWJvdXQ9JycKICB4bWxuczpBdHRyaWI9J2h0dHA6Ly9ucy5hdHRyaWJ1dGlvbi5jb20vYWRzLzEuMC8nPgogIDxBdHRyaWI6QWRzPgogICA8cmRmOlNlcT4KICAgIDxyZGY6bGkgcmRmOnBhcnNlVHlwZT0nUmVzb3VyY2UnPgogICAgIDxBdHRyaWI6Q3JlYXRlZD4yMDI0LTA1LTEwPC9BdHRyaWI6Q3JlYXRlZD4KICAgICA8QXR0cmliOkV4dElkPjZiYmU4NWE4LWJhODQtNDkwNS04MTNjLTEwZDlmOTQ1YmFlYjwvQXR0cmliOkV4dElkPgogICAgIDxBdHRyaWI6RmJJZD41MjUyNjU5MTQxNzk1ODA8L0F0dHJpYjpGYklkPgogICAgIDxBdHRyaWI6VG91Y2hUeXBlPjI8L0F0dHJpYjpUb3VjaFR5cGU+CiAgICA8L3JkZjpsaT4KICAgPC9yZGY6U2VxPgogIDwvQXR0cmliOkFkcz4KIDwvcmRmOkRlc2NyaXB0aW9uPgoKIDxyZGY6RGVzY3JpcHRpb24gcmRmOmFib3V0PScnCiAgeG1sbnM6ZGM9J2h0dHA6Ly9wdXJsLm9yZy9kYy9lbGVtZW50cy8xLjEvJz4KICA8ZGM6dGl0bGU+CiAgIDxyZGY6QWx0PgogICAgPHJkZjpsaSB4bWw6bGFuZz0neC1kZWZhdWx0Jz5HcsOhZmljbyB0dWJlbGV0IEhHUiAtIDE8L3JkZjpsaT4KICAgPC9yZGY6QWx0PgogIDwvZGM6dGl0bGU+CiA8L3JkZjpEZXNjcmlwdGlvbj4KPC9yZGY6UkRGPgo8L3g6eG1wbWV0YT4KPD94cGFja2V0IGVuZD0ncic/Phi98yMAACAASURBVHic7Z0J2LXV9MZPxlKGQgohjUhlimaVBkNJKCkZkpBkrFSfUlGi0SwqIXMZIySFQgMVKsP3okwVKmS2/9dvX//7ue53ffs58/Cc7z33dT3X+55znmE/+9577bXXXmvtVmoo/ve//+VD///3v/9N//73v/NRwt/+9rf04x//OH3hC19I73vf+9Khhx6a9txzz7TddtulRz3qUWm11VZLK620Ulp22WVTq9VKd7nLXdKKK66YHvCAB6R11lknPfrRj05bbrllev7zn5+OPPLIdPrpp6dvfetb6Q9/+EP6z3/+s8Tz+I6yUC6V1cvcVLQmXYAIJ5mDSi1V+K9//et01llnpX322SdtvPHGmUyIbHcss8wy6Y53vGO6053ulP/e4Q536HjNne985/TIRz4yvfjFL07vec970ne/+93cuBxqjCLfy980NILwut7s+N3vfpc+/elPp9e//vVpo402yqQ5Mcstt1x6+MMfnp7+9Ken173udend7353+tKXvpQuvPDC9L3vfS/98Ic/zMfll1+err766nTVVVelK6+8Mv+99NJL0wUXXJC+8pWvpA984ANZOuy2225ZMtzznvdcohGsvvrqae+9904f/ehHc7kcNE6Opvb6iRIeiZaYFP75z3+mL37xi7l33fe+951X6fe+970zuccff3zudX/6059qxX2/oDx//vOf02WXXZZOPfXUtNdee6UHP/jB88pxj3vcIz3jGc/I5HOuoEbbtB4/EcJLRLvYnpubS29961tzj/XKpccdccQR6Rvf+Ea65ZZbau9NQ+Ggwv/1r3/lyv/pT3+a3v/+96fPfvaz6e9//3s+97e//W0eGjjvH//4Rz74jWv/+te/pl/+8pdLkMTv3//+93ND22qrreaV7373u196xSteka644op55WkS8WMlvEQ0ZAg/+MEP0r777lspVhwoVAcffHC6+OKL5/VgXQ85kKpDjcfHfpS5l7zkJVlcv+Md78jfnX/++enEE0/MpFIG7sP5ug/Xf/CDH8zX8CzdO4J7H3vssenxj3/8PPKf9rSn5SHFy9sE4sdGuL8gFeyVhzb8rGc9q6qsu93tbunlL3957skQ4ffw3qseKYJEsp8HDjzwwNyQhM997nNp9913Tz/72c+q70S6P+umm27K533ta1/L3+neahiRMPSDN77xjXlGoHd54hOfmJ/nz9G7T4L0kRMee7X30u985ztp++23ryoHTfsNb3hD+tWvfjXvHiLSe65I1l/9roPvaRAoZZtssknadddd089//vN03XXX5anaeeedl+997bXXpi9/+cvpxhtvzJ8hDSVO5Vy0aFGWDqV3qVMwGW5OOeWUtMYaa1Tvtvnmm88jflK9faSE+4u4+GbspBJVGaussko6+uij52m83lv94Hv1RAhE09b56j1qBHxmzEbRYliA/De96U1pp512ytfwOyJ5gw02SGeeeWb+bo899khvf/vbq3K8973vTU960pMqncGHoEhYVDqZvjEkrLfeetW77rDDDrkcwrh7+0gIb9erTzvttLTyyitXFfCa17wm3XzzzdXv7YwZ6k0QCl75ylemLbbYotKOda2LZ6ZgD3vYw9L111+f78OcmrEb6BwIRtNmXv+ud70r/eUvf6mIeNvb3pYNMswCVIZ271zq9fx/0kknZUOP5vZvfvObq999eBg18UMnvI5sKpxplIim1zDdEaRN+7Xxr9+PXvKgBz0o3+tjH/tY/s57OeIcIEaxokEY11Dp5557bv5N2vpPfvKTLAVofK4fgP333z+XW+d2IqNdY6cOXvjCF84T8zwbqKHGewwbQyU8inABscqUhZd84AMfmD70oQ9Vv4mkeH3dPdUrIUIVx/SIaZSUNWnagLH0mc98Zn7GJz7xibTuuutmAwwQuR//+Mdzz0diAO7Fb9yP3v3a1742f+8Nspe6kJYvMEN47GMfWxmMsOB5fdTVxTAwNMK9gN6q0ZBFDJq4xHfU1OterlRpKHtowvTKNddcMxtlsH0DeqLGcYC2j+YMTj755Dx9oqeB22+/PVvkaIAocVjwUOL0PM5jfEfUA+kU/daLi3r+P+igg6q6efazn13VTRTxw8RQCPdCqaL/+Mc/pqc85SnVC51wwgnzzul2zCo1pG9+85vpne98ZzamMI9GbEusxzk4QwfjMoBYeuwNN9yQP3/4wx/O4hpxz/lo74j1W2+9Nf/+kY98JPdEFlC6KWs37xDFPNJPVsS11lqrGuZGpcUPTHipBzJWUni9BD0S9DMHjSJdYyvgeRpb9dmVOpS5zTbbLJ1zzjn5M5W56aabph/96Ef5M1M0rGZo05SNeTmNCZHOd/Q6iVtXJAepq1JvZxq69dZbV6t43niHPa4PRHip1WJdwr5M4ek9t912W/6+X020VEl6Fgsjn/rUp/L/NARpyGpUKERUpMZsrmPxxaUNiBY/yopp9/DDDy+ugg2KurGdRZ8oEfVOsS76Rd+Ee6FVwcxlVWAWGgS9VD8Fjj3cFTcWVpgnAxeB+h0ljTGbsVEV95vf/CZPtTR/jxKH+yAREPdID7cH+HsPijoFl7KpDjFCCcMivS/CS2Rjo1ZB99tvv+rcQQ0L8Vlu1oRIWciiJADY5llSlZ1c0gEiNW7HuT6/q4HoWdLYvTzDQCyz6gpFUnWJ0ik46f2iZ8JLZGNUUAEPOeSQ6txhWJFKhEvMYiCRM0K7aZAWPkSeRHgsX2no0DRv0Pfo9h01XDEzUJ0ydxcGJb0nwr1iVDBvjW95y1uqQg1LBJUIl8j+6le/ms4444z8v4t0nq3lTg4RLhJ9ZS2WUY2FZ+haPW9UhMf3VN0y+5BXDroHGHR46Zpwf1m1eG+FKlAke1BEMnyOzaJHHeFudfNVLu+90YSrZ+g6X5QZ1bw4vqv+6h1xrFAdswbv79pPA+yK8NJc+KKLLkp3vetdc0Fe9KIXVecNk+x4n7gixnxZc+Z+CYnXtavEUZJdKo/q2vWjT37yk/m7foeZrgkHEoF4ichUytRLGDbZupc/33sn82xZp2IvjUen72O5S+cN+93avbP+qs6xFmrhRXYNN8N2i46ER82Xz6xQyYath/p4OEzEl9f4DD7/+c9nXzNQskx1e8TndHPeqOH1rrpHY9d6BNNL0Gu9tyW8pKS9+tWvzg9lpQqPEDBKg38cW309/Otf//o8q9TShtjZwDbbbJPrn06n73uRrB0JBxovPvOZz1Rjidx+xjFl8Rd3Bwd3YxpXzxsXosRRp2LtQLZ3reKV7Al1qCU8jtusHOGZwoMwOYJRL+XFe7sDBN/9/ve/r1a+lmbC9d6s7gEsgZquYVgC3Y7nRcK9tUhc4BYkxwU/p5uHDII4hvsCCi+OHQAM2yd90ojaujtlsMiz6qqrVotTagjdiPZawoEqkbmunAwRKWBUSlpdWfRMV9rwdiWWzMszjahTGAHv68afubm57MSx/vrrZz99uYkBn5/XYQnCo6KAY6FaE94jwMftUaM0LXP/8XE1vFGj3dxf5mOWUfHAxRsWB05WC6VT8T/oJNprCY9a+ROe8IR554xy3C6Vx0W6SP7FL36Rrrnmmvx/nXPhNKDdlFA8LF68OG244YZZhMsPDhCGJf/3eI8S5hEeFTVCZhS0R7Ad6GeyPwhiBbgt/eyzz66kzjSP4aXx2nUVPHTocA95yENyYCSQlMXlW17AcvNqx9EShLt1Z5dddsk3kiN+N2PEsBErwwln+ZPoFLA0jOE+7RTZ6EyIcXq2Ytbk7BEXsHDHdu/atoTH3o2tnJsQLqupzyhMp50Qpyeaorhon6bxuxsFzYMdEdWYsYmGAQqtih60im1T7Fxd55xHuE/DnvzkJ+cb4FkJxqmoOUo9XGVh/JaIm5YxvM6UC3g3/OkAYhxr2kMf+tDsdwdkaHJ3MfVyXL3gi/N1j7aE64FAvXuFFVaopmHDcOLrB3G+7yIdo4OiSKZpDK+zX6ghY1DC2ZKefckll+TvEOPyoy8t1/KXgAt4IywalHp5Syf72P285z0vX/iqV72q9sJxIYp0F+V4n6r1T2MP93V3NWLIRrridy/9xEOo4jDgYzlu2PAG8XUOKFUP1wn4euMqy8H/YJIKUcm0Kg12HJa+YSMSTq+WpYzFKLxssXsQDw/8PUv38vrhXCVRkEEqSr5WnO+RYcH9qCbZu0Ec41yko7XK4NBELT32xNh4eQ+UML6DbCJzWK/QFJiGUHLvjvcFHloFf4RX6Tl+fss/YNEhdIcLSHADfJ15EigZXjRlQVHBgVLlbBK8zkpEuYKGBy0ZI+5zn/tUDZiGwHvGdf66Z0lCo+wtv/zyOUuVwqZ8uMsiXZWFIUNpNlSpk+zd8fkxXBjrE/Hd+q1paFdvEtV47ey88845SRFOmfrNvWa7Idx1MJIfwCPBFMAbTctPJCmduxpPWpyDSHi0ozd1Lh7FsFvQPP6OuHTWt0W23knv2q2e4sMys5c65a2lL3i4THSy6DRhXIzi0FeO8O0i+gQ0oawOb6jqqZRRRhUySuAPeK973avj8NkN6f48wrvIMAmXmtapflpqFawtcwLBd36DSfecdmM4QxBRpGCSY3idUhUlk8QzYzbJguhgCnRUWFPpPv5duzJ4LyfWHT6POuqo/FmNqSKcOTcnHHPMMflzKUvRJBAVHQ8mxJHPDUOTRDslTWv4lJ8x+znPeU66+93vXk2dPFjCr+8HqhskH3xicvVyZaWNB7GgzglNW4wo9RSRzrSl21Qcoy5jLKvDY9owaqGN4x8IlMBANvJ29+mmHGr4xLRjKWW1E7dywG+ZcNZXlc5S2YqaIM5VDv2VWFfF0DjlmD9p45CXUVYxLytTsBe84AU5xwxJAIBnm3IF1O/ZazmcN8Wcu99bJpzQWH7Ycccd8w+95DIZNUpjuJQ2YtHdbjzJMroBRFNHKWqQTWJA4ublVl033Rq03n0cV/CCwsAqwg844ID8A7HJKnSTCVf5UH488mSSZXSN3BslfyEbYwjJg4AsaH5tLwpaJ4hwtH94ZT1dyISTPsq9WpoyfoM6wpFCTD8IGfbzxlGeOq0caBahcZlku2Rq8ggZX8+u0+z7fR8fxzHXksaUsVwdo0WFMXZjilP4StNEulem9x5aMIn+wLhEeidCpFRipmZqxJjNkAm0vClRr/sMu669vkhH5k6OLdyE+IIUWG5ObQpi61eFAghXysxxjuFR6qhXiUQIxfmT3kUmKOAOmJ5lalSEq5craTEpQEELLZcvSFk1qgIMglIPV6UhnSYp0j25gCcPwKaBBU3Sx02k8V6jKqN0BPLEwO9hhx2WP7fIM+p5WSa9OhYR5+HtwoXHVR791fCipPqQTs/Gl4CNdgDfR3v2MMbqThDhzGLgF8seaEG0Zxfw3ChNQKxgjzwhJcYop2V1ypkPL24lY68ULGgkAuQz2rhbBoetoLUrt4YMImyV1xW0mHvzhSw/Tezh+hvDhcdheGlXF9K2IR2y0YbVsz0ebJTjdR0kVYhDk3Mj9dbCwZ0vfHmuaYRH0+q4woVjY4u9W2VhfGTqRS5XIKXMc83Edxk13MTKEIPkQd9prb322plwpZFo0hwclMZwDTtMI+fm5qrfRvlsiW/3HOUvVix6tjxvukkBPg7oOdgqMPrQIPm/hSEfwpWesomE6++4l0cj4ZIo6r0sPZLYCP1HJs3okDFq5axd2QF6BMuwlDMTDvusqMhDddLLjBFeUdHwgmcnqbv02zCeU6dY6bky67KjAXWH06AcErtxOBx3D6dcjN+I9SzSySRAdyesBTSRcK90t1X34gLU7bPqIG0c4DNAj9HeKCKbcyYRjlWCD4NY2+jUmXDEOQN6zHfWFJREunozGqhSYQ/aUNspaK584RhIz2azHCBN3FOR+P0mBX8+ijkdOxPOBqyYAJUEvqk93LVjiXSmkq4ZD/oc/dWUyi1pAMWMTfTw3RdKiyB+v0nBy4EzI2slmXBEE8neCK4HTSRcf+PSI4omCe3BMMdwX8+WgohyyHo2ZLt516+N95ok3PzLTAyOM+GEA9PLtZdWkwkfVrhwJwUtRoUQf40UxKFAjaFdIsB+yjRs6Pm8Ax6slZauraDYoRc0eVoWezjjt2Kwem2oTkgkyns2CfgR4/jq+wa23USETBIqE942LORU8/DHPe5xSzgvNukFIhnDCBduN02i4Si4j81mUdCIkffG1jQFrQR1ALyCaLAQjmLe0s5D2hez6bZ0F+UkBGCvUNBLD/d7uu+Zei5g/Rgxzj4k+i4G5k0D4bhxo6ETkUpDbilhq1JFNHG1LJpWBw0XjhJDG9PJ5RkPFcyl5D/zEKG6ezQNei+g5A5Mzfi+xS4GpeRuTUE0vLhIZ1uqTn70nRQrzaNFNh40iHHWtTX3joGVTVPQSohJFUnQBFr6QnnPx2n+6wYlw4uHC3eah7cjXNq4GhAZFBDjL3vZy+bFgsl27vdrMjRUAbkqKxFvC+2cL0jnOO4cbN2gJNL1MoxPpRjo0j1Kn/mrxsN2HohxXIplIlWM9rBNuKOG9B3AdmLwq90ZW7gI0arR5Hxf0Ka8WCTclavS6lTpev31KA+l2wDsK4IYF9lA53hulXbPaRK8jPiku79Dy+PKlCCnSVOzqKV7D//2t7+dd0UAncZwv9ZzoRG9iSvxPvvsM4/sdvdqMryDyAWdhRPtt5oDEZSvU92+SZp6HMNdiYrpszspaJqCiWx2LqRns0kPUxYZXUrKWVN7eOmd1WDpEHG4zoQrdeNzn/vc/GVTRbpHjvIdKa7UciMpJaLcgobRBts4Yxw9QdGdo9qFcFQovbc67HHHHZd5JbMHoP4y4VLcyA3WKVfnuOFlEOESz0R3yCpWIile65vjsCRM6C5zcHdfmrbxWohDH2DmBa/aIZmGkAmn0sjUy49KZdmUcTz2Vl+lYt8V3+Qmim9X0CTmzj333Ez2brvtVjUWnTuNZMchT3VD2Lf2RiG6COQeroogLxs/yhmvKRGk7QwvMVzYz3OHQ/VszmdXB/YFV8RKaTo3TaTHRi4Jff7552c+SabvhqMq5Ye2lVTI0aRyq0aUDC9qjESesDig3+P0zcmmZ6OgkTWJa9pZ0Py5TUecdkpqHXjggZnPvffeO3+WBKyyOLHVBaKOk5q0y0Ad4ZQtbkUZW7sIPe+883LPxryo80tJdKYRXnZPQKAEix5gAlo+yNP6PbFP0/K0lcKFWcJUWQXvvcS8M5aR/E7SQA6JSwvh+ushWPCIXhZTabckCoB2smW3nElES5QQe64rJliPFI6r+C6fljAPxScbbVW5a0S0lLlpE+ERPhTpvZVgsbTb0bwefuONNyYFJrBFFJi0tl7q4SKd1ouI9nBdjWH4utGzn/rUp1YOmiUL2tJCuDgkGofhy3ePdOlXJddVZbC/CSfvv//+1cmT7OXtDC+ktMCfnv8Zk6Whsl0EWYnZpxPjjCtv06yglaD3EKkMcdrArrTRfZUvXYTTs7kAP6i418kkEMW5j8+kv5I5WNMsFvwhe/vtt89kAy1x6j5L60HdKDi0tLk8aMVKAGyswkWLFi0qXjROOOExXBixrcxIAIcIPDSJhVa+GtnOm7Q+MGyodysbNg2e4RnEzloR7hdSiVzInhsa/2TSnOTh/uJxIYQksuSpYW9UppjAfdWki5R6RbseM8reOIxrVTdgyy23nLcxUamjLrGrkVqFvFk1RWsiGL85rrzyyqyNb7zxxlWMnEd5+jq6yI9hv55OS0qgK4kez+aavptuVcE+C9D3fk2cKfgaQfzfr1fZ/NmSduRtVdjY4sWL83eloXiJfcvUy/Ht0m70iEoiU4gwJZ5rUgfeLRzXXXdd1i/IfcY69kYbbZTJlhj3RLWSDCLDLXUeUqQGr0ah3qOGoXPc7u7fgxj7FpXM0v/uEatrVRZ38hDZsRGJVCyk8IWFzXmMw3BxZ0JAC0fT4yYEKxCfxM53j3jEIyZ2sIHLeuutl6MhsRWwzksoLKmpWBsnexK2BMAcnRkHf3l5hil81XDyoKLwhcPPi01bMcgceeSROdiAsY8hAbGIdGPad/XVV+eca6w6UdkohnjHYMXiM72LhieHSrxemeUgeXD+51nMiUlyizmYjBEEI/IslndJKnDCCSfkOicCiGR+3IPGxj25t9Js48f30pe+NOddYzjDJK7UXCjanki3pHcV9x5V61BKLw7SP+HkRyQGCxaTOng+PRu/cciFMCoVYohEYQde3gN3LbbHoFJ5HyoWkzEVzmfOQ1pwLXN37oME0/QOKcJ3kMA5nItU4Vo2EyAhMcMHn5kN8Cy+59l8z+8Ye7h+bm4u34/lXD5zXyQWz+U7fsM/j8bDsygn5aVhUn7uhS4FiTyLz3zPZ8qFkgZHHtFa6t1LEO69PK6pspzYNFAp2vPEjQvRwBLHMv/d37V0bqy0Tvf2zxpC/Df/PRq1Svfy3/1eGrshGX5WX331ap2g3cJX7XbSujktCAdHbuqZgCehpWv8dTdlRCEo5S+NplP/7JUftV3/XNKG6+416LO7eZb0CEBjJ0gQbjSUdfI8XoJwP1kXk8tEqZ98HXlUU5a6IwYTMt7JBOwVVHof/94rL55fd27pc10vqrtf3f/dXOuf9a5sfeUxBe16tlBLeJymoQlzc5QVEOe1o0LsJdKOS+HC/TSifq+bxAHUu7Ewwgd+eegE4sTro4Qi4X6Rejl+b8SR8xCiVfzhoyTdSYk9HO1Z6cZKc86lBZELZhoE+MOFe+36uXWoJbz0IKYpPATPESq7lwf1i9gThxEuPE1wKQsYUpkewwP+C/qtW2nbFeF+o5122qnaBC067o+CdH8RN04AFEo56C2NPTw2dLDHHntUzg2sFoJe6r8t4X4T3ZT5nzxccfPVOe2UpkHgjU0WJvXyUT2zCXCyNXQizah34r0x/oBeJWxHwv1mujmeJBrPtW3lqALu/F7RfoxLtRb568KDphElJY0oGRnBTj/99Hm/9aJDdU14LABZg1UAD9kdNulRrHlAAaZNJTJYWsbwUl2TApteLYsn6HeW1BXhXhAfT6TEcWDTVSGHSXqcHnowIXZjTJT6bdpRIhsdhUxb1DFhUfG8Xuu4a8L95j5my/+ZxG/aNHWYpEfCew0XnhaUyKYxs1pJ/eLBEzX2ft65J8L9IW7ukx8cc0PMnWBY4j02Mvd4QXHRKtI0j+FePyKbpIMim6VfOWcO2sB7Jtwf5mKUyFOJd1a09Lu3xn4KGcdw7ufhwnrWNI7hUTSLbFy3WOqkLnFEUaKGYfjR90W4HgqcdPV0DtJLC4MUtDQtk/RgiigPl2kT6aWhCuCXRqprhX2xfAqGFTQxEOEl0pmmiXS5OoN+x/VIePRLV4VME+H+Ti6ZyOequttzzz2XOGcYJuy+CY8F8DGdqZIKvsUWW6S5ubn8vXy14rXdPkNi3SNPtCw4DWN4nQin0Sr5jm8OC6J79aAYiPBYEBdNBN3j9aptqqVcgVJ6jm7uHw0v7IagHfeaPoaX3gNcccUV2W1LZCt4P1ovhyXBBiZccAJV+Xik7LDDDtXL4CfmYqqbFyoZXjQ84ELU1MT+Ql2vBrhsyYEBf3q3Go6CbDA0wkFpegFw2hPprKtf8P+7GOu8dr29HeH4p3HEZzcBkWiXQPjOyXWMAydERcmMOmnvUAkHUXQJhLBqXsmBRq+AAVAn5v2lo0gnyL9pIr1EtOqBcjN7IS+evEwV7gz8HUbVgIdOOKhr3Szn4TEj0hnjlbJDcB9xP3SvpiptsbzegAGNU1s7ay17sQUMDFs5q8NICBe84N56EembbbZZ9fIYF+SHLUSnROCRHvyOdjvJaVlsjLIEOsg+Id8zDjIzyBoJelFgh4GREg6iFu8VAsnaGZEDbRXLmbIW+DUecaFKwldb0SbjJDwS5GJbYFaioEwOEtSjy7gT6Lh6tWPkhIOSiNdneihbQ93//vevKofMQ8cee2y1eZ6gzMeyK4/LtBoJ9jAjBzoJOoVCdhXrRcSL8uaorOPs1Y6xEC6001yJ2mBdfcMNN6wqCxMj4pCIF4W/Ohga4q7Ig1Rk6fpIcLwn0giFFMOJMi9IPzn44IMro5PKOKrpVrcYK+FCOzGPmKMC8Z2TVw0HqUjIiYqSxrJhXfqOGKlZChIoHTHYwcmJYApFPBkWMbl76dhggw1ycIQ30LiMO8kp5EQIF0q9yEGgweGHH54DCb1S6fnM59mPhB7OON6LSO+lwiEK6YPyRVlII6L0ZjqI7aIxMmvwRqJGU5pxTAoTJVwoTWm84uhxRFHSo4gg9cpWA1hnnXWyVDjggANyNkmkBNGbithk3I/ZJXkO3xPAR6MhSA8nDsybOHaQsZEhJhKsHCpEcaJxKx2Y3zeGB02aaKERhAvt5twCpOETz7hOePCmm26a/eQjITpwyiA2joxOTIlwryZTAhKCRkLv5Ho59pcOhhZCk0lPiuM/SYO0Ji94QoBRWsoGRaMId8TeUSJfYLwktyjLi/RwtuaCWCx7WLW04wOk4ooFgfzlM7ZspkycA/mMwbgTEZNNTB06A7OF0rM9W0MTe3MJjSVcKGnOddMiB2RIXOtgDsyBZq3//XemiJ3uGfPFxDI2HY0nPKKuAbh2PWjlS6K4tj6tBEdMHeEl1M2fh3HonksLlgrCZ+geM8IXGGaELzDMCF9gmBG+wDAjfIFhRvgCw4zwBYYZ4QsMM8IXGGaELzDMCF9gaAThvSx8lM7v9tp25/p9O5UtPrubc5uCRhAOOlVKdH3y83up0Lpz292jjthBz50EGkG49wSS0+O4IB907TPiKHmAyl9duwrHQ3uY+DM5n+d108NpaLp/fHY8V1Exo05L2g8aRTgeKESfrLrqqtktGT9v/uIKvNVWW2WvUXYOANHrBL9w4tBxU+KvH2yAgzsTOynoeXi9EPVC0IBv6BYhicJuC9yHzAw6N56viFn8qYPwSgAAA6ZJREFU6/GF0zaZTQl0BI0inFhvxUuTOYJQHf6uv/762QeN71dYYYV5cdS6FvdhfsfLlLg1Mh9tsskm+WAfM+7hMV00LnzbIFFbYZUIl1S4/PLL8/0pk86tI5yGybn42Pn3TUCjCIcEHArZVCcGARD8TxZCKnK11VbLPmhA5ynxAK7J7eBZifUsF9MRnqlBiXZ0bh3h2lBAYVAzwgOccLxL8TZVr4v7ftBbqUwiP4DEJZ6mfA8xoG5jutKzeiF82223rc6tI5wdkjx9x4zwgG4I1zjL1lOl3iPCEb1AGr0fM8KnhHBPxke0B5XJRnogEt5JpM8IbwAiCYzRJc2WcZvkN1SmkuqKEBFOSm2gKZQfsx7eUMIhVZu8QRypQtDMH/OYx+SKRAsGrqVLaSPzsB/kUSGqhKmdgvH9WTPCJwCflrFLjwIEFRqkVJSQp/zowBU69XBixrbeeuscP8YUivk70zQCDZUeBAybcP6fEd4lVHGIbObZEEzSm1122SXtvvvuOSMEFXjaaafl82LiHyDCCTFuB5+WzQifEFykY3hhbuwgWpMKZH9wYrVB1LpHPS0jUX2vhM/m4TUokaA8LpqOkaiXSvTtksdBuCQCm8Fxf0yxOjceIlabBsxMqzVoNy1TDyPNBnZxJ9UDB0U4e50DRXn64WO+P4uxXatxpWsA55C3hVhyJQBQggEOD2dGb6AsbCjn79AENJZw73WqSKWXllgtKW2eLakEH8NLw0cJej7ZmHjGoYceWnsuSYVl04/v1wQ0jnCUNrZGLi1DQpamZr6pDiAJgAwyWNvYaottKjkuvvjivF2GkunrWcwIWJkjmQDnswk75/khmz0gfQiLLTyHjJIYebgPww+reMcdd1yVNYJdDUCTejdoBOHqdVQulcW8Oa5gebpNzmG6ptSVgNWxupQdOsgHp3syz+90Pscll1ySr5EuAcme7prtpTxdCMuzpPUGTdyApxGEuxMDK03HH3/8ErsAeE9nXZv8LmyAK5DVkdW0I444Ihtm/OA7UnfrfO6DBGEbrkWLFhWv0XWe6VEEIlVYat1vv/1yVuQdd9wxJwsm74wkQlPSdEU0gnDQztvE/8bz4mpaJ/Szv5nfvxsRHT1rmoRGEO6E0ntKOcP9r7ayijnR+E7Xx8NdpXwa1ekoNTaVwVfk/HM8v0loBOHThEh8HG6aSrQwI3yBYUb4AsOM8AWGGeELDDPCFxhmhC8wzAhfYJgRvsAwI3yB4f8AZs0JW/yZscgAAAAASUVORK5CYII=;" vertex="1" parent="1">
          <mxGeometry x="273" y="137" width="34" height="46.61" as="geometry" />
        </mxCell>
        <mxCell id="Ls8tjAH7kymWJmCwIJN0-28" value="" style="rounded=0;whiteSpace=wrap;html=1;fillColor=#d5e8d4;strokeColor=none;" vertex="1" parent="1">
          <mxGeometry x="1200" y="160" width="20" height="60" as="geometry" />
        </mxCell>
        <mxCell id="Ls8tjAH7kymWJmCwIJN0-27" value="" style="triangle;whiteSpace=wrap;html=1;strokeColor=none;fillColor=#d5e8d4;" vertex="1" parent="1">
          <mxGeometry x="1180" y="180" width="40" height="80" as="geometry" />
        </mxCell>
        <mxCell id="Ls8tjAH7kymWJmCwIJN0-26" value="" style="triangle;whiteSpace=wrap;html=1;strokeColor=none;fillColor=#d5e8d4;" vertex="1" parent="1">
          <mxGeometry x="1180" y="120" width="40" height="80" as="geometry" />
        </mxCell>
        <mxCell id="Ls8tjAH7kymWJmCwIJN0-25" value="" style="rounded=0;whiteSpace=wrap;html=1;fillColor=#d5e8d4;strokeColor=none;" vertex="1" parent="1">
          <mxGeometry x="1130" y="120" width="50" height="140" as="geometry" />
        </mxCell>
        <mxCell id="Ls8tjAH7kymWJmCwIJN0-29" style="edgeStyle=orthogonalEdgeStyle;rounded=0;orthogonalLoop=1;jettySize=auto;html=1;entryX=0;entryY=0.5;entryDx=0;entryDy=0;" edge="1" parent="1" source="Ls8tjAH7kymWJmCwIJN0-1" target="Ls8tjAH7kymWJmCwIJN0-3">
          <mxGeometry relative="1" as="geometry" />
        </mxCell>
        <mxCell id="Ls8tjAH7kymWJmCwIJN0-1" value="Conv2D&lt;div&gt;(200,2)&lt;/div&gt;" style="rounded=0;whiteSpace=wrap;html=1;fillColor=#d5e8d4;strokeColor=#82b366;" vertex="1" parent="1">
          <mxGeometry x="210" y="120" width="60" height="140" as="geometry" />
        </mxCell>
        <mxCell id="Ls8tjAH7kymWJmCwIJN0-30" style="edgeStyle=orthogonalEdgeStyle;rounded=0;orthogonalLoop=1;jettySize=auto;html=1;entryX=0;entryY=0.5;entryDx=0;entryDy=0;" edge="1" parent="1" source="Ls8tjAH7kymWJmCwIJN0-3" target="Ls8tjAH7kymWJmCwIJN0-4">
          <mxGeometry relative="1" as="geometry" />
        </mxCell>
        <mxCell id="Ls8tjAH7kymWJmCwIJN0-3" value="MaxPool&lt;div&gt;(4,1)&lt;/div&gt;" style="rounded=0;whiteSpace=wrap;html=1;fillColor=#d5e8d4;strokeColor=#82b366;" vertex="1" parent="1">
          <mxGeometry x="310" y="120" width="60" height="140" as="geometry" />
        </mxCell>
        <mxCell id="Ls8tjAH7kymWJmCwIJN0-31" style="edgeStyle=orthogonalEdgeStyle;rounded=0;orthogonalLoop=1;jettySize=auto;html=1;entryX=0;entryY=0.5;entryDx=0;entryDy=0;" edge="1" parent="1" source="Ls8tjAH7kymWJmCwIJN0-4" target="Ls8tjAH7kymWJmCwIJN0-5">
          <mxGeometry relative="1" as="geometry" />
        </mxCell>
        <mxCell id="Ls8tjAH7kymWJmCwIJN0-4" value="Dropout" style="rounded=0;whiteSpace=wrap;html=1;fillColor=#d5e8d4;strokeColor=#82b366;" vertex="1" parent="1">
          <mxGeometry x="413.5" y="120" width="60" height="140" as="geometry" />
        </mxCell>
        <mxCell id="Ls8tjAH7kymWJmCwIJN0-32" style="edgeStyle=orthogonalEdgeStyle;rounded=0;orthogonalLoop=1;jettySize=auto;html=1;entryX=0;entryY=0.5;entryDx=0;entryDy=0;" edge="1" parent="1" source="Ls8tjAH7kymWJmCwIJN0-5" target="Ls8tjAH7kymWJmCwIJN0-6">
          <mxGeometry relative="1" as="geometry" />
        </mxCell>
        <mxCell id="Ls8tjAH7kymWJmCwIJN0-5" value="Conv2D&lt;div&gt;(60,2)&lt;/div&gt;" style="rounded=0;whiteSpace=wrap;html=1;fillColor=#d5e8d4;strokeColor=#82b366;" vertex="1" parent="1">
          <mxGeometry x="520" y="120" width="60" height="140" as="geometry" />
        </mxCell>
        <mxCell id="Ls8tjAH7kymWJmCwIJN0-33" style="edgeStyle=orthogonalEdgeStyle;rounded=0;orthogonalLoop=1;jettySize=auto;html=1;entryX=0;entryY=0.5;entryDx=0;entryDy=0;" edge="1" parent="1" source="Ls8tjAH7kymWJmCwIJN0-6" target="Ls8tjAH7kymWJmCwIJN0-7">
          <mxGeometry relative="1" as="geometry" />
        </mxCell>
        <mxCell id="Ls8tjAH7kymWJmCwIJN0-6" value="MaxPool&lt;div&gt;(4,2)&lt;/div&gt;" style="rounded=0;whiteSpace=wrap;html=1;fillColor=#d5e8d4;strokeColor=#82b366;" vertex="1" parent="1">
          <mxGeometry x="620" y="120" width="60" height="140" as="geometry" />
        </mxCell>
        <mxCell id="Ls8tjAH7kymWJmCwIJN0-34" style="edgeStyle=orthogonalEdgeStyle;rounded=0;orthogonalLoop=1;jettySize=auto;html=1;exitX=1;exitY=0.5;exitDx=0;exitDy=0;entryX=0;entryY=0.5;entryDx=0;entryDy=0;" edge="1" parent="1" source="Ls8tjAH7kymWJmCwIJN0-7" target="Ls8tjAH7kymWJmCwIJN0-8">
          <mxGeometry relative="1" as="geometry" />
        </mxCell>
        <mxCell id="Ls8tjAH7kymWJmCwIJN0-7" value="Dropout" style="rounded=0;whiteSpace=wrap;html=1;fillColor=#d5e8d4;strokeColor=#82b366;" vertex="1" parent="1">
          <mxGeometry x="723.5" y="120" width="60" height="140" as="geometry" />
        </mxCell>
        <mxCell id="Ls8tjAH7kymWJmCwIJN0-35" style="edgeStyle=orthogonalEdgeStyle;rounded=0;orthogonalLoop=1;jettySize=auto;html=1;exitX=1;exitY=0.5;exitDx=0;exitDy=0;entryX=0;entryY=0.5;entryDx=0;entryDy=0;" edge="1" parent="1" source="Ls8tjAH7kymWJmCwIJN0-8" target="Ls8tjAH7kymWJmCwIJN0-9">
          <mxGeometry relative="1" as="geometry" />
        </mxCell>
        <mxCell id="Ls8tjAH7kymWJmCwIJN0-8" value="Conv2D&lt;div&gt;(10,2)&lt;/div&gt;" style="rounded=0;whiteSpace=wrap;html=1;fillColor=#d5e8d4;strokeColor=#82b366;" vertex="1" parent="1">
          <mxGeometry x="827" y="120" width="60" height="140" as="geometry" />
        </mxCell>
        <mxCell id="Ls8tjAH7kymWJmCwIJN0-36" style="edgeStyle=orthogonalEdgeStyle;rounded=0;orthogonalLoop=1;jettySize=auto;html=1;entryX=0;entryY=0.5;entryDx=0;entryDy=0;" edge="1" parent="1" source="Ls8tjAH7kymWJmCwIJN0-9" target="Ls8tjAH7kymWJmCwIJN0-10">
          <mxGeometry relative="1" as="geometry" />
        </mxCell>
        <mxCell id="Ls8tjAH7kymWJmCwIJN0-9" value="Dropout" style="rounded=0;whiteSpace=wrap;html=1;fillColor=#d5e8d4;strokeColor=#82b366;" vertex="1" parent="1">
          <mxGeometry x="930" y="120" width="60" height="140" as="geometry" />
        </mxCell>
        <mxCell id="Ls8tjAH7kymWJmCwIJN0-37" style="edgeStyle=orthogonalEdgeStyle;rounded=0;orthogonalLoop=1;jettySize=auto;html=1;exitX=1;exitY=0.5;exitDx=0;exitDy=0;" edge="1" parent="1" source="Ls8tjAH7kymWJmCwIJN0-10">
          <mxGeometry relative="1" as="geometry">
            <mxPoint x="1130" y="190.14814814814815" as="targetPoint" />
          </mxGeometry>
        </mxCell>
        <mxCell id="Ls8tjAH7kymWJmCwIJN0-10" value="Flatten" style="rounded=0;whiteSpace=wrap;html=1;fillColor=#d5e8d4;strokeColor=#82b366;" vertex="1" parent="1">
          <mxGeometry x="1030" y="120" width="60" height="140" as="geometry" />
        </mxCell>
        <mxCell id="Ls8tjAH7kymWJmCwIJN0-14" value="" style="endArrow=none;html=1;rounded=0;fillColor=#d5e8d4;strokeColor=#82b366;" edge="1" parent="1">
          <mxGeometry width="50" height="50" relative="1" as="geometry">
            <mxPoint x="1130" y="260" as="sourcePoint" />
            <mxPoint x="1130" y="120" as="targetPoint" />
          </mxGeometry>
        </mxCell>
        <mxCell id="Ls8tjAH7kymWJmCwIJN0-15" value="" style="endArrow=none;html=1;rounded=0;fillColor=#d5e8d4;strokeColor=#82b366;" edge="1" parent="1">
          <mxGeometry width="50" height="50" relative="1" as="geometry">
            <mxPoint x="1130" y="260" as="sourcePoint" />
            <mxPoint x="1180" y="260" as="targetPoint" />
          </mxGeometry>
        </mxCell>
        <mxCell id="Ls8tjAH7kymWJmCwIJN0-16" value="" style="endArrow=none;html=1;rounded=0;fillColor=#d5e8d4;strokeColor=#82b366;" edge="1" parent="1">
          <mxGeometry width="50" height="50" relative="1" as="geometry">
            <mxPoint x="1130" y="120" as="sourcePoint" />
            <mxPoint x="1180" y="120" as="targetPoint" />
          </mxGeometry>
        </mxCell>
        <mxCell id="Ls8tjAH7kymWJmCwIJN0-17" value="" style="endArrow=none;html=1;rounded=0;fillColor=#d5e8d4;strokeColor=#82b366;" edge="1" parent="1">
          <mxGeometry width="50" height="50" relative="1" as="geometry">
            <mxPoint x="1180" y="260" as="sourcePoint" />
            <mxPoint x="1220" y="220" as="targetPoint" />
          </mxGeometry>
        </mxCell>
        <mxCell id="Ls8tjAH7kymWJmCwIJN0-18" value="" style="endArrow=none;html=1;rounded=0;fillColor=#d5e8d4;strokeColor=#82b366;" edge="1" parent="1">
          <mxGeometry width="50" height="50" relative="1" as="geometry">
            <mxPoint x="1180" y="120" as="sourcePoint" />
            <mxPoint x="1220" y="160" as="targetPoint" />
          </mxGeometry>
        </mxCell>
        <mxCell id="Ls8tjAH7kymWJmCwIJN0-19" value="" style="endArrow=none;html=1;rounded=0;fillColor=#d5e8d4;strokeColor=#82b366;" edge="1" parent="1">
          <mxGeometry width="50" height="50" relative="1" as="geometry">
            <mxPoint x="1220" y="220" as="sourcePoint" />
            <mxPoint x="1220" y="160" as="targetPoint" />
          </mxGeometry>
        </mxCell>
        <mxCell id="Ls8tjAH7kymWJmCwIJN0-20" value="Dense" style="text;html=1;align=center;verticalAlign=middle;whiteSpace=wrap;rounded=0;fillColor=#d5e8d4;strokeColor=none;" vertex="1" parent="1">
          <mxGeometry x="1140" y="175" width="60" height="30" as="geometry" />
        </mxCell>
        <mxCell id="Ls8tjAH7kymWJmCwIJN0-22" value="" style="endArrow=classic;html=1;rounded=0;shape=flexArrow;fillColor=#d5e8d4;strokeColor=#82b366;" edge="1" parent="1">
          <mxGeometry width="50" height="50" relative="1" as="geometry">
            <mxPoint x="1220" y="190" as="sourcePoint" />
            <mxPoint x="1270" y="190" as="targetPoint" />
          </mxGeometry>
        </mxCell>
        <mxCell id="Ls8tjAH7kymWJmCwIJN0-23" value="Probabilities" style="text;html=1;align=center;verticalAlign=middle;resizable=0;points=[];autosize=1;strokeColor=none;fillColor=none;" vertex="1" parent="1">
          <mxGeometry x="1260" y="175" width="90" height="30" as="geometry" />
        </mxCell>
        <mxCell id="Ls8tjAH7kymWJmCwIJN0-39" value="" style="shape=image;verticalLabelPosition=bottom;labelBackgroundColor=default;verticalAlign=top;aspect=fixed;imageAspect=0;image=data:image/png,iVBORw0KGgoAAAANSUhEUgAAAHwAAACqCAYAAABveSuMAAAACXBIWXMAAA7EAAAOxAGVKw4bAAADZWlUWHRYTUw6Y29tLmFkb2JlLnhtcAAAAAAAPD94cGFja2V0IGJlZ2luPSfvu78nIGlkPSdXNU0wTXBDZWhpSHpyZVN6TlRjemtjOWQnPz4KPHg6eG1wbWV0YSB4bWxuczp4PSdhZG9iZTpuczptZXRhLyc+CjxyZGY6UkRGIHhtbG5zOnJkZj0naHR0cDovL3d3dy53My5vcmcvMTk5OS8wMi8yMi1yZGYtc3ludGF4LW5zIyc+CgogPHJkZjpEZXNjcmlwdGlvbiByZGY6YWJvdXQ9JycKICB4bWxuczpBdHRyaWI9J2h0dHA6Ly9ucy5hdHRyaWJ1dGlvbi5jb20vYWRzLzEuMC8nPgogIDxBdHRyaWI6QWRzPgogICA8cmRmOlNlcT4KICAgIDxyZGY6bGkgcmRmOnBhcnNlVHlwZT0nUmVzb3VyY2UnPgogICAgIDxBdHRyaWI6Q3JlYXRlZD4yMDI0LTA1LTEwPC9BdHRyaWI6Q3JlYXRlZD4KICAgICA8QXR0cmliOkV4dElkPjZiYmU4NWE4LWJhODQtNDkwNS04MTNjLTEwZDlmOTQ1YmFlYjwvQXR0cmliOkV4dElkPgogICAgIDxBdHRyaWI6RmJJZD41MjUyNjU5MTQxNzk1ODA8L0F0dHJpYjpGYklkPgogICAgIDxBdHRyaWI6VG91Y2hUeXBlPjI8L0F0dHJpYjpUb3VjaFR5cGU+CiAgICA8L3JkZjpsaT4KICAgPC9yZGY6U2VxPgogIDwvQXR0cmliOkFkcz4KIDwvcmRmOkRlc2NyaXB0aW9uPgoKIDxyZGY6RGVzY3JpcHRpb24gcmRmOmFib3V0PScnCiAgeG1sbnM6ZGM9J2h0dHA6Ly9wdXJsLm9yZy9kYy9lbGVtZW50cy8xLjEvJz4KICA8ZGM6dGl0bGU+CiAgIDxyZGY6QWx0PgogICAgPHJkZjpsaSB4bWw6bGFuZz0neC1kZWZhdWx0Jz5HcsOhZmljbyB0dWJlbGV0IEhHUiAtIDE8L3JkZjpsaT4KICAgPC9yZGY6QWx0PgogIDwvZGM6dGl0bGU+CiA8L3JkZjpEZXNjcmlwdGlvbj4KPC9yZGY6UkRGPgo8L3g6eG1wbWV0YT4KPD94cGFja2V0IGVuZD0ncic/Phi98yMAACAASURBVHic7Z0J2LXV9MZPxlKGQgohjUhlimaVBkNJKCkZkpBkrFSfUlGi0SwqIXMZIySFQgMVKsP3okwVKmS2/9dvX//7ue53ffs58/Cc7z33dT3X+55znmE/+9577bXXXmvtVmoo/ve//+VD///3v/9N//73v/NRwt/+9rf04x//OH3hC19I73vf+9Khhx6a9txzz7TddtulRz3qUWm11VZLK620Ulp22WVTq9VKd7nLXdKKK66YHvCAB6R11lknPfrRj05bbrllev7zn5+OPPLIdPrpp6dvfetb6Q9/+EP6z3/+s8Tz+I6yUC6V1cvcVLQmXYAIJ5mDSi1V+K9//et01llnpX322SdtvPHGmUyIbHcss8wy6Y53vGO6053ulP/e4Q536HjNne985/TIRz4yvfjFL07vec970ne/+93cuBxqjCLfy980NILwut7s+N3vfpc+/elPp9e//vVpo402yqQ5Mcstt1x6+MMfnp7+9Ken173udend7353+tKXvpQuvPDC9L3vfS/98Ic/zMfll1+err766nTVVVelK6+8Mv+99NJL0wUXXJC+8pWvpA984ANZOuy2225ZMtzznvdcohGsvvrqae+9904f/ehHc7kcNE6Opvb6iRIeiZaYFP75z3+mL37xi7l33fe+951X6fe+970zuccff3zudX/6059qxX2/oDx//vOf02WXXZZOPfXUtNdee6UHP/jB88pxj3vcIz3jGc/I5HOuoEbbtB4/EcJLRLvYnpubS29961tzj/XKpccdccQR6Rvf+Ea65ZZbau9NQ+Ggwv/1r3/lyv/pT3+a3v/+96fPfvaz6e9//3s+97e//W0eGjjvH//4Rz74jWv/+te/pl/+8pdLkMTv3//+93ND22qrreaV7373u196xSteka644op55WkS8WMlvEQ0ZAg/+MEP0r777lspVhwoVAcffHC6+OKL5/VgXQ85kKpDjcfHfpS5l7zkJVlcv+Md78jfnX/++enEE0/MpFIG7sP5ug/Xf/CDH8zX8CzdO4J7H3vssenxj3/8PPKf9rSn5SHFy9sE4sdGuL8gFeyVhzb8rGc9q6qsu93tbunlL3957skQ4ffw3qseKYJEsp8HDjzwwNyQhM997nNp9913Tz/72c+q70S6P+umm27K533ta1/L3+neahiRMPSDN77xjXlGoHd54hOfmJ/nz9G7T4L0kRMee7X30u985ztp++23ryoHTfsNb3hD+tWvfjXvHiLSe65I1l/9roPvaRAoZZtssknadddd089//vN03XXX5anaeeedl+997bXXpi9/+cvpxhtvzJ8hDSVO5Vy0aFGWDqV3qVMwGW5OOeWUtMYaa1Tvtvnmm88jflK9faSE+4u4+GbspBJVGaussko6+uij52m83lv94Hv1RAhE09b56j1qBHxmzEbRYliA/De96U1pp512ytfwOyJ5gw02SGeeeWb+bo899khvf/vbq3K8973vTU960pMqncGHoEhYVDqZvjEkrLfeetW77rDDDrkcwrh7+0gIb9erTzvttLTyyitXFfCa17wm3XzzzdXv7YwZ6k0QCl75ylemLbbYotKOda2LZ6ZgD3vYw9L111+f78OcmrEb6BwIRtNmXv+ud70r/eUvf6mIeNvb3pYNMswCVIZ271zq9fx/0kknZUOP5vZvfvObq999eBg18UMnvI5sKpxplIim1zDdEaRN+7Xxr9+PXvKgBz0o3+tjH/tY/s57OeIcIEaxokEY11Dp5557bv5N2vpPfvKTLAVofK4fgP333z+XW+d2IqNdY6cOXvjCF84T8zwbqKHGewwbQyU8inABscqUhZd84AMfmD70oQ9Vv4mkeH3dPdUrIUIVx/SIaZSUNWnagLH0mc98Zn7GJz7xibTuuutmAwwQuR//+Mdzz0diAO7Fb9yP3v3a1742f+8Nspe6kJYvMEN47GMfWxmMsOB5fdTVxTAwNMK9gN6q0ZBFDJq4xHfU1OterlRpKHtowvTKNddcMxtlsH0DeqLGcYC2j+YMTj755Dx9oqeB22+/PVvkaIAocVjwUOL0PM5jfEfUA+kU/daLi3r+P+igg6q6efazn13VTRTxw8RQCPdCqaL/+Mc/pqc85SnVC51wwgnzzul2zCo1pG9+85vpne98ZzamMI9GbEusxzk4QwfjMoBYeuwNN9yQP3/4wx/O4hpxz/lo74j1W2+9Nf/+kY98JPdEFlC6KWs37xDFPNJPVsS11lqrGuZGpcUPTHipBzJWUni9BD0S9DMHjSJdYyvgeRpb9dmVOpS5zTbbLJ1zzjn5M5W56aabph/96Ef5M1M0rGZo05SNeTmNCZHOd/Q6iVtXJAepq1JvZxq69dZbV6t43niHPa4PRHip1WJdwr5M4ek9t912W/6+X020VEl6Fgsjn/rUp/L/NARpyGpUKERUpMZsrmPxxaUNiBY/yopp9/DDDy+ugg2KurGdRZ8oEfVOsS76Rd+Ee6FVwcxlVWAWGgS9VD8Fjj3cFTcWVpgnAxeB+h0ljTGbsVEV95vf/CZPtTR/jxKH+yAREPdID7cH+HsPijoFl7KpDjFCCcMivS/CS2Rjo1ZB99tvv+rcQQ0L8Vlu1oRIWciiJADY5llSlZ1c0gEiNW7HuT6/q4HoWdLYvTzDQCyz6gpFUnWJ0ik46f2iZ8JLZGNUUAEPOeSQ6txhWJFKhEvMYiCRM0K7aZAWPkSeRHgsX2no0DRv0Pfo9h01XDEzUJ0ydxcGJb0nwr1iVDBvjW95y1uqQg1LBJUIl8j+6le/ms4444z8v4t0nq3lTg4RLhJ9ZS2WUY2FZ+haPW9UhMf3VN0y+5BXDroHGHR46Zpwf1m1eG+FKlAke1BEMnyOzaJHHeFudfNVLu+90YSrZ+g6X5QZ1bw4vqv+6h1xrFAdswbv79pPA+yK8NJc+KKLLkp3vetdc0Fe9KIXVecNk+x4n7gixnxZc+Z+CYnXtavEUZJdKo/q2vWjT37yk/m7foeZrgkHEoF4ichUytRLGDbZupc/33sn82xZp2IvjUen72O5S+cN+93avbP+qs6xFmrhRXYNN8N2i46ER82Xz6xQyYath/p4OEzEl9f4DD7/+c9nXzNQskx1e8TndHPeqOH1rrpHY9d6BNNL0Gu9tyW8pKS9+tWvzg9lpQqPEDBKg38cW309/Otf//o8q9TShtjZwDbbbJPrn06n73uRrB0JBxovPvOZz1Rjidx+xjFl8Rd3Bwd3YxpXzxsXosRRp2LtQLZ3reKV7Al1qCU8jtusHOGZwoMwOYJRL+XFe7sDBN/9/ve/r1a+lmbC9d6s7gEsgZquYVgC3Y7nRcK9tUhc4BYkxwU/p5uHDII4hvsCCi+OHQAM2yd90ojaujtlsMiz6qqrVotTagjdiPZawoEqkbmunAwRKWBUSlpdWfRMV9rwdiWWzMszjahTGAHv68afubm57MSx/vrrZz99uYkBn5/XYQnCo6KAY6FaE94jwMftUaM0LXP/8XE1vFGj3dxf5mOWUfHAxRsWB05WC6VT8T/oJNprCY9a+ROe8IR554xy3C6Vx0W6SP7FL36Rrrnmmvx/nXPhNKDdlFA8LF68OG244YZZhMsPDhCGJf/3eI8S5hEeFTVCZhS0R7Ad6GeyPwhiBbgt/eyzz66kzjSP4aXx2nUVPHTocA95yENyYCSQlMXlW17AcvNqx9EShLt1Z5dddsk3kiN+N2PEsBErwwln+ZPoFLA0jOE+7RTZ6EyIcXq2Ytbk7BEXsHDHdu/atoTH3o2tnJsQLqupzyhMp50Qpyeaorhon6bxuxsFzYMdEdWYsYmGAQqtih60im1T7Fxd55xHuE/DnvzkJ+cb4FkJxqmoOUo9XGVh/JaIm5YxvM6UC3g3/OkAYhxr2kMf+tDsdwdkaHJ3MfVyXL3gi/N1j7aE64FAvXuFFVaopmHDcOLrB3G+7yIdo4OiSKZpDK+zX6ghY1DC2ZKefckll+TvEOPyoy8t1/KXgAt4IywalHp5Syf72P285z0vX/iqV72q9sJxIYp0F+V4n6r1T2MP93V3NWLIRrridy/9xEOo4jDgYzlu2PAG8XUOKFUP1wn4euMqy8H/YJIKUcm0Kg12HJa+YSMSTq+WpYzFKLxssXsQDw/8PUv38vrhXCVRkEEqSr5WnO+RYcH9qCbZu0Ec41yko7XK4NBELT32xNh4eQ+UML6DbCJzWK/QFJiGUHLvjvcFHloFf4RX6Tl+fss/YNEhdIcLSHADfJ15EigZXjRlQVHBgVLlbBK8zkpEuYKGBy0ZI+5zn/tUDZiGwHvGdf66Z0lCo+wtv/zyOUuVwqZ8uMsiXZWFIUNpNlSpk+zd8fkxXBjrE/Hd+q1paFdvEtV47ey88845SRFOmfrNvWa7Idx1MJIfwCPBFMAbTctPJCmduxpPWpyDSHi0ozd1Lh7FsFvQPP6OuHTWt0W23knv2q2e4sMys5c65a2lL3i4THSy6DRhXIzi0FeO8O0i+gQ0oawOb6jqqZRRRhUySuAPeK973avj8NkN6f48wrvIMAmXmtapflpqFawtcwLBd36DSfecdmM4QxBRpGCSY3idUhUlk8QzYzbJguhgCnRUWFPpPv5duzJ4LyfWHT6POuqo/FmNqSKcOTcnHHPMMflzKUvRJBAVHQ8mxJHPDUOTRDslTWv4lJ8x+znPeU66+93vXk2dPFjCr+8HqhskH3xicvVyZaWNB7GgzglNW4wo9RSRzrSl21Qcoy5jLKvDY9owaqGN4x8IlMBANvJ29+mmHGr4xLRjKWW1E7dywG+ZcNZXlc5S2YqaIM5VDv2VWFfF0DjlmD9p45CXUVYxLytTsBe84AU5xwxJAIBnm3IF1O/ZazmcN8Wcu99bJpzQWH7Ycccd8w+95DIZNUpjuJQ2YtHdbjzJMroBRFNHKWqQTWJA4ublVl033Rq03n0cV/CCwsAqwg844ID8A7HJKnSTCVf5UH488mSSZXSN3BslfyEbYwjJg4AsaH5tLwpaJ4hwtH94ZT1dyISTPsq9WpoyfoM6wpFCTD8IGfbzxlGeOq0caBahcZlku2Rq8ggZX8+u0+z7fR8fxzHXksaUsVwdo0WFMXZjilP4StNEulem9x5aMIn+wLhEeidCpFRipmZqxJjNkAm0vClRr/sMu669vkhH5k6OLdyE+IIUWG5ObQpi61eFAghXysxxjuFR6qhXiUQIxfmT3kUmKOAOmJ5lalSEq5craTEpQEELLZcvSFk1qgIMglIPV6UhnSYp0j25gCcPwKaBBU3Sx02k8V6jKqN0BPLEwO9hhx2WP7fIM+p5WSa9OhYR5+HtwoXHVR791fCipPqQTs/Gl4CNdgDfR3v2MMbqThDhzGLgF8seaEG0Zxfw3ChNQKxgjzwhJcYop2V1ypkPL24lY68ULGgkAuQz2rhbBoetoLUrt4YMImyV1xW0mHvzhSw/Tezh+hvDhcdheGlXF9K2IR2y0YbVsz0ebJTjdR0kVYhDk3Mj9dbCwZ0vfHmuaYRH0+q4woVjY4u9W2VhfGTqRS5XIKXMc83Edxk13MTKEIPkQd9prb322plwpZFo0hwclMZwDTtMI+fm5qrfRvlsiW/3HOUvVix6tjxvukkBPg7oOdgqMPrQIPm/hSEfwpWesomE6++4l0cj4ZIo6r0sPZLYCP1HJs3okDFq5axd2QF6BMuwlDMTDvusqMhDddLLjBFeUdHwgmcnqbv02zCeU6dY6bky67KjAXWH06AcErtxOBx3D6dcjN+I9SzSySRAdyesBTSRcK90t1X34gLU7bPqIG0c4DNAj9HeKCKbcyYRjlWCD4NY2+jUmXDEOQN6zHfWFJREunozGqhSYQ/aUNspaK584RhIz2azHCBN3FOR+P0mBX8+ijkdOxPOBqyYAJUEvqk93LVjiXSmkq4ZD/oc/dWUyi1pAMWMTfTw3RdKiyB+v0nBy4EzI2slmXBEE8neCK4HTSRcf+PSI4omCe3BMMdwX8+WgohyyHo2ZLt516+N95ok3PzLTAyOM+GEA9PLtZdWkwkfVrhwJwUtRoUQf40UxKFAjaFdIsB+yjRs6Pm8Ax6slZauraDYoRc0eVoWezjjt2Kwem2oTkgkyns2CfgR4/jq+wa23USETBIqE942LORU8/DHPe5xSzgvNukFIhnDCBduN02i4Si4j81mUdCIkffG1jQFrQR1ALyCaLAQjmLe0s5D2hez6bZ0F+UkBGCvUNBLD/d7uu+Zei5g/Rgxzj4k+i4G5k0D4bhxo6ETkUpDbilhq1JFNHG1LJpWBw0XjhJDG9PJ5RkPFcyl5D/zEKG6ezQNei+g5A5Mzfi+xS4GpeRuTUE0vLhIZ1uqTn70nRQrzaNFNh40iHHWtTX3joGVTVPQSohJFUnQBFr6QnnPx2n+6wYlw4uHC3eah7cjXNq4GhAZFBDjL3vZy+bFgsl27vdrMjRUAbkqKxFvC+2cL0jnOO4cbN2gJNL1MoxPpRjo0j1Kn/mrxsN2HohxXIplIlWM9rBNuKOG9B3AdmLwq90ZW7gI0arR5Hxf0Ka8WCTclavS6lTpev31KA+l2wDsK4IYF9lA53hulXbPaRK8jPiku79Dy+PKlCCnSVOzqKV7D//2t7+dd0UAncZwv9ZzoRG9iSvxPvvsM4/sdvdqMryDyAWdhRPtt5oDEZSvU92+SZp6HMNdiYrpszspaJqCiWx2LqRns0kPUxYZXUrKWVN7eOmd1WDpEHG4zoQrdeNzn/vc/GVTRbpHjvIdKa7UciMpJaLcgobRBts4Yxw9QdGdo9qFcFQovbc67HHHHZd5JbMHoP4y4VLcyA3WKVfnuOFlEOESz0R3yCpWIile65vjsCRM6C5zcHdfmrbxWohDH2DmBa/aIZmGkAmn0sjUy49KZdmUcTz2Vl+lYt8V3+Qmim9X0CTmzj333Ez2brvtVjUWnTuNZMchT3VD2Lf2RiG6COQeroogLxs/yhmvKRGk7QwvMVzYz3OHQ/VszmdXB/YFV8RKaTo3TaTHRi4Jff7552c+SabvhqMq5Ye2lVTI0aRyq0aUDC9qjESesDig3+P0zcmmZ6OgkTWJa9pZ0Py5TUecdkpqHXjggZnPvffeO3+WBKyyOLHVBaKOk5q0y0Ad4ZQtbkUZW7sIPe+883LPxryo80tJdKYRXnZPQKAEix5gAlo+yNP6PbFP0/K0lcKFWcJUWQXvvcS8M5aR/E7SQA6JSwvh+ushWPCIXhZTabckCoB2smW3nElES5QQe64rJliPFI6r+C6fljAPxScbbVW5a0S0lLlpE+ERPhTpvZVgsbTb0bwefuONNyYFJrBFFJi0tl7q4SKd1ouI9nBdjWH4utGzn/rUp1YOmiUL2tJCuDgkGofhy3ePdOlXJddVZbC/CSfvv//+1cmT7OXtDC+ktMCfnv8Zk6Whsl0EWYnZpxPjjCtv06yglaD3EKkMcdrArrTRfZUvXYTTs7kAP6i418kkEMW5j8+kv5I5WNMsFvwhe/vtt89kAy1x6j5L60HdKDi0tLk8aMVKAGyswkWLFi0qXjROOOExXBixrcxIAIcIPDSJhVa+GtnOm7Q+MGyodysbNg2e4RnEzloR7hdSiVzInhsa/2TSnOTh/uJxIYQksuSpYW9UppjAfdWki5R6RbseM8reOIxrVTdgyy23nLcxUamjLrGrkVqFvFk1RWsiGL85rrzyyqyNb7zxxlWMnEd5+jq6yI9hv55OS0qgK4kez+aavptuVcE+C9D3fk2cKfgaQfzfr1fZ/NmSduRtVdjY4sWL83eloXiJfcvUy/Ht0m70iEoiU4gwJZ5rUgfeLRzXXXdd1i/IfcY69kYbbZTJlhj3RLWSDCLDLXUeUqQGr0ah3qOGoXPc7u7fgxj7FpXM0v/uEatrVRZ38hDZsRGJVCyk8IWFzXmMw3BxZ0JAC0fT4yYEKxCfxM53j3jEIyZ2sIHLeuutl6MhsRWwzksoLKmpWBsnexK2BMAcnRkHf3l5hil81XDyoKLwhcPPi01bMcgceeSROdiAsY8hAbGIdGPad/XVV+eca6w6UdkohnjHYMXiM72LhieHSrxemeUgeXD+51nMiUlyizmYjBEEI/IslndJKnDCCSfkOicCiGR+3IPGxj25t9Js48f30pe+NOddYzjDJK7UXCjanki3pHcV9x5V61BKLw7SP+HkRyQGCxaTOng+PRu/cciFMCoVYohEYQde3gN3LbbHoFJ5HyoWkzEVzmfOQ1pwLXN37oME0/QOKcJ3kMA5nItU4Vo2EyAhMcMHn5kN8Cy+59l8z+8Ye7h+bm4u34/lXD5zXyQWz+U7fsM/j8bDsygn5aVhUn7uhS4FiTyLz3zPZ8qFkgZHHtFa6t1LEO69PK6pspzYNFAp2vPEjQvRwBLHMv/d37V0bqy0Tvf2zxpC/Df/PRq1Svfy3/1eGrshGX5WX331ap2g3cJX7XbSujktCAdHbuqZgCehpWv8dTdlRCEo5S+NplP/7JUftV3/XNKG6+416LO7eZb0CEBjJ0gQbjSUdfI8XoJwP1kXk8tEqZ98HXlUU5a6IwYTMt7JBOwVVHof/94rL55fd27pc10vqrtf3f/dXOuf9a5sfeUxBe16tlBLeJymoQlzc5QVEOe1o0LsJdKOS+HC/TSifq+bxAHUu7Ewwgd+eegE4sTro4Qi4X6Rejl+b8SR8xCiVfzhoyTdSYk9HO1Z6cZKc86lBZELZhoE+MOFe+36uXWoJbz0IKYpPATPESq7lwf1i9gThxEuPE1wKQsYUpkewwP+C/qtW2nbFeF+o5122qnaBC067o+CdH8RN04AFEo56C2NPTw2dLDHHntUzg2sFoJe6r8t4X4T3ZT5nzxccfPVOe2UpkHgjU0WJvXyUT2zCXCyNXQizah34r0x/oBeJWxHwv1mujmeJBrPtW3lqALu/F7RfoxLtRb568KDphElJY0oGRnBTj/99Hm/9aJDdU14LABZg1UAD9kdNulRrHlAAaZNJTJYWsbwUl2TApteLYsn6HeW1BXhXhAfT6TEcWDTVSGHSXqcHnowIXZjTJT6bdpRIhsdhUxb1DFhUfG8Xuu4a8L95j5my/+ZxG/aNHWYpEfCew0XnhaUyKYxs1pJ/eLBEzX2ft65J8L9IW7ukx8cc0PMnWBY4j02Mvd4QXHRKtI0j+FePyKbpIMim6VfOWcO2sB7Jtwf5mKUyFOJd1a09Lu3xn4KGcdw7ufhwnrWNI7hUTSLbFy3WOqkLnFEUaKGYfjR90W4HgqcdPV0DtJLC4MUtDQtk/RgiigPl2kT6aWhCuCXRqprhX2xfAqGFTQxEOEl0pmmiXS5OoN+x/VIePRLV4VME+H+Ti6ZyOequttzzz2XOGcYJuy+CY8F8DGdqZIKvsUWW6S5ubn8vXy14rXdPkNi3SNPtCw4DWN4nQin0Sr5jm8OC6J79aAYiPBYEBdNBN3j9aptqqVcgVJ6jm7uHw0v7IagHfeaPoaX3gNcccUV2W1LZCt4P1ovhyXBBiZccAJV+Xik7LDDDtXL4CfmYqqbFyoZXjQ84ELU1MT+Ql2vBrhsyYEBf3q3Go6CbDA0wkFpegFw2hPprKtf8P+7GOu8dr29HeH4p3HEZzcBkWiXQPjOyXWMAydERcmMOmnvUAkHUXQJhLBqXsmBRq+AAVAn5v2lo0gnyL9pIr1EtOqBcjN7IS+evEwV7gz8HUbVgIdOOKhr3Szn4TEj0hnjlbJDcB9xP3SvpiptsbzegAGNU1s7ay17sQUMDFs5q8NICBe84N56EembbbZZ9fIYF+SHLUSnROCRHvyOdjvJaVlsjLIEOsg+Id8zDjIzyBoJelFgh4GREg6iFu8VAsnaGZEDbRXLmbIW+DUecaFKwldb0SbjJDwS5GJbYFaioEwOEtSjy7gT6Lh6tWPkhIOSiNdneihbQ93//vevKofMQ8cee2y1eZ6gzMeyK4/LtBoJ9jAjBzoJOoVCdhXrRcSL8uaorOPs1Y6xEC6001yJ2mBdfcMNN6wqCxMj4pCIF4W/Ohga4q7Ig1Rk6fpIcLwn0giFFMOJMi9IPzn44IMro5PKOKrpVrcYK+FCOzGPmKMC8Z2TVw0HqUjIiYqSxrJhXfqOGKlZChIoHTHYwcmJYApFPBkWMbl76dhggw1ycIQ30LiMO8kp5EQIF0q9yEGgweGHH54DCb1S6fnM59mPhB7OON6LSO+lwiEK6YPyRVlII6L0ZjqI7aIxMmvwRqJGU5pxTAoTJVwoTWm84uhxRFHSo4gg9cpWA1hnnXWyVDjggANyNkmkBNGbithk3I/ZJXkO3xPAR6MhSA8nDsybOHaQsZEhJhKsHCpEcaJxKx2Y3zeGB02aaKERhAvt5twCpOETz7hOePCmm26a/eQjITpwyiA2joxOTIlwryZTAhKCRkLv5Ho59pcOhhZCk0lPiuM/SYO0Ji94QoBRWsoGRaMId8TeUSJfYLwktyjLi/RwtuaCWCx7WLW04wOk4ooFgfzlM7ZspkycA/mMwbgTEZNNTB06A7OF0rM9W0MTe3MJjSVcKGnOddMiB2RIXOtgDsyBZq3//XemiJ3uGfPFxDI2HY0nPKKuAbh2PWjlS6K4tj6tBEdMHeEl1M2fh3HonksLlgrCZ+geM8IXGGaELzDMCF9gmBG+wDAjfIFhRvgCw4zwBYYZ4QsMM8IXGGaELzDMCF9gaAThvSx8lM7v9tp25/p9O5UtPrubc5uCRhAOOlVKdH3y83up0Lpz292jjthBz50EGkG49wSS0+O4IB907TPiKHmAyl9duwrHQ3uY+DM5n+d108NpaLp/fHY8V1Exo05L2g8aRTgeKESfrLrqqtktGT9v/uIKvNVWW2WvUXYOANHrBL9w4tBxU+KvH2yAgzsTOynoeXi9EPVC0IBv6BYhicJuC9yHzAw6N56viFn8qYPwSgAAA6ZJREFU6/GF0zaZTQl0BI0inFhvxUuTOYJQHf6uv/762QeN71dYYYV5cdS6FvdhfsfLlLg1Mh9tsskm+WAfM+7hMV00LnzbIFFbYZUIl1S4/PLL8/0pk86tI5yGybn42Pn3TUCjCIcEHArZVCcGARD8TxZCKnK11VbLPmhA5ynxAK7J7eBZifUsF9MRnqlBiXZ0bh3h2lBAYVAzwgOccLxL8TZVr4v7ftBbqUwiP4DEJZ6mfA8xoG5jutKzeiF82223rc6tI5wdkjx9x4zwgG4I1zjL1lOl3iPCEb1AGr0fM8KnhHBPxke0B5XJRnogEt5JpM8IbwAiCYzRJc2WcZvkN1SmkuqKEBFOSm2gKZQfsx7eUMIhVZu8QRypQtDMH/OYx+SKRAsGrqVLaSPzsB/kUSGqhKmdgvH9WTPCJwCflrFLjwIEFRqkVJSQp/zowBU69XBixrbeeuscP8YUivk70zQCDZUeBAybcP6fEd4lVHGIbObZEEzSm1122SXtvvvuOSMEFXjaaafl82LiHyDCCTFuB5+WzQifEFykY3hhbuwgWpMKZH9wYrVB1LpHPS0jUX2vhM/m4TUokaA8LpqOkaiXSvTtksdBuCQCm8Fxf0yxOjceIlabBsxMqzVoNy1TDyPNBnZxJ9UDB0U4e50DRXn64WO+P4uxXatxpWsA55C3hVhyJQBQggEOD2dGb6AsbCjn79AENJZw73WqSKWXllgtKW2eLakEH8NLw0cJej7ZmHjGoYceWnsuSYVl04/v1wQ0jnCUNrZGLi1DQpamZr6pDiAJgAwyWNvYaottKjkuvvjivF2GkunrWcwIWJkjmQDnswk75/khmz0gfQiLLTyHjJIYebgPww+reMcdd1yVNYJdDUCTejdoBOHqdVQulcW8Oa5gebpNzmG6ptSVgNWxupQdOsgHp3syz+90Pscll1ySr5EuAcme7prtpTxdCMuzpPUGTdyApxGEuxMDK03HH3/8ErsAeE9nXZv8LmyAK5DVkdW0I444Ihtm/OA7UnfrfO6DBGEbrkWLFhWv0XWe6VEEIlVYat1vv/1yVuQdd9wxJwsm74wkQlPSdEU0gnDQztvE/8bz4mpaJ/Szv5nfvxsRHT1rmoRGEO6E0ntKOcP9r7ayijnR+E7Xx8NdpXwa1ekoNTaVwVfk/HM8v0loBOHThEh8HG6aSrQwI3yBYUb4AsOM8AWGGeELDDPCFxhmhC8wzAhfYJgRvsAwI3yB4f8AZs0JW/yZscgAAAAASUVORK5CYII=;" vertex="1" parent="1">
          <mxGeometry x="583" y="136" width="34" height="46.61" as="geometry" />
        </mxCell>
        <mxCell id="Ls8tjAH7kymWJmCwIJN0-40" value="" style="shape=image;verticalLabelPosition=bottom;labelBackgroundColor=default;verticalAlign=top;aspect=fixed;imageAspect=0;image=data:image/png,iVBORw0KGgoAAAANSUhEUgAAAHwAAACqCAYAAABveSuMAAAACXBIWXMAAA7EAAAOxAGVKw4bAAADZWlUWHRYTUw6Y29tLmFkb2JlLnhtcAAAAAAAPD94cGFja2V0IGJlZ2luPSfvu78nIGlkPSdXNU0wTXBDZWhpSHpyZVN6TlRjemtjOWQnPz4KPHg6eG1wbWV0YSB4bWxuczp4PSdhZG9iZTpuczptZXRhLyc+CjxyZGY6UkRGIHhtbG5zOnJkZj0naHR0cDovL3d3dy53My5vcmcvMTk5OS8wMi8yMi1yZGYtc3ludGF4LW5zIyc+CgogPHJkZjpEZXNjcmlwdGlvbiByZGY6YWJvdXQ9JycKICB4bWxuczpBdHRyaWI9J2h0dHA6Ly9ucy5hdHRyaWJ1dGlvbi5jb20vYWRzLzEuMC8nPgogIDxBdHRyaWI6QWRzPgogICA8cmRmOlNlcT4KICAgIDxyZGY6bGkgcmRmOnBhcnNlVHlwZT0nUmVzb3VyY2UnPgogICAgIDxBdHRyaWI6Q3JlYXRlZD4yMDI0LTA1LTEwPC9BdHRyaWI6Q3JlYXRlZD4KICAgICA8QXR0cmliOkV4dElkPjZiYmU4NWE4LWJhODQtNDkwNS04MTNjLTEwZDlmOTQ1YmFlYjwvQXR0cmliOkV4dElkPgogICAgIDxBdHRyaWI6RmJJZD41MjUyNjU5MTQxNzk1ODA8L0F0dHJpYjpGYklkPgogICAgIDxBdHRyaWI6VG91Y2hUeXBlPjI8L0F0dHJpYjpUb3VjaFR5cGU+CiAgICA8L3JkZjpsaT4KICAgPC9yZGY6U2VxPgogIDwvQXR0cmliOkFkcz4KIDwvcmRmOkRlc2NyaXB0aW9uPgoKIDxyZGY6RGVzY3JpcHRpb24gcmRmOmFib3V0PScnCiAgeG1sbnM6ZGM9J2h0dHA6Ly9wdXJsLm9yZy9kYy9lbGVtZW50cy8xLjEvJz4KICA8ZGM6dGl0bGU+CiAgIDxyZGY6QWx0PgogICAgPHJkZjpsaSB4bWw6bGFuZz0neC1kZWZhdWx0Jz5HcsOhZmljbyB0dWJlbGV0IEhHUiAtIDE8L3JkZjpsaT4KICAgPC9yZGY6QWx0PgogIDwvZGM6dGl0bGU+CiA8L3JkZjpEZXNjcmlwdGlvbj4KPC9yZGY6UkRGPgo8L3g6eG1wbWV0YT4KPD94cGFja2V0IGVuZD0ncic/Phi98yMAACAASURBVHic7Z0J2LXV9MZPxlKGQgohjUhlimaVBkNJKCkZkpBkrFSfUlGi0SwqIXMZIySFQgMVKsP3okwVKmS2/9dvX//7ue53ffs58/Cc7z33dT3X+55znmE/+9577bXXXmvtVmoo/ve//+VD///3v/9N//73v/NRwt/+9rf04x//OH3hC19I73vf+9Khhx6a9txzz7TddtulRz3qUWm11VZLK620Ulp22WVTq9VKd7nLXdKKK66YHvCAB6R11lknPfrRj05bbrllev7zn5+OPPLIdPrpp6dvfetb6Q9/+EP6z3/+s8Tz+I6yUC6V1cvcVLQmXYAIJ5mDSi1V+K9//et01llnpX322SdtvPHGmUyIbHcss8wy6Y53vGO6053ulP/e4Q536HjNne985/TIRz4yvfjFL07vec970ne/+93cuBxqjCLfy980NILwut7s+N3vfpc+/elPp9e//vVpo402yqQ5Mcstt1x6+MMfnp7+9Ken173udend7353+tKXvpQuvPDC9L3vfS/98Ic/zMfll1+err766nTVVVelK6+8Mv+99NJL0wUXXJC+8pWvpA984ANZOuy2225ZMtzznvdcohGsvvrqae+9904f/ehHc7kcNE6Opvb6iRIeiZaYFP75z3+mL37xi7l33fe+951X6fe+970zuccff3zudX/6059qxX2/oDx//vOf02WXXZZOPfXUtNdee6UHP/jB88pxj3vcIz3jGc/I5HOuoEbbtB4/EcJLRLvYnpubS29961tzj/XKpccdccQR6Rvf+Ea65ZZbau9NQ+Ggwv/1r3/lyv/pT3+a3v/+96fPfvaz6e9//3s+97e//W0eGjjvH//4Rz74jWv/+te/pl/+8pdLkMTv3//+93ND22qrreaV7373u196xSteka644op55WkS8WMlvEQ0ZAg/+MEP0r777lspVhwoVAcffHC6+OKL5/VgXQ85kKpDjcfHfpS5l7zkJVlcv+Md78jfnX/++enEE0/MpFIG7sP5ug/Xf/CDH8zX8CzdO4J7H3vssenxj3/8PPKf9rSn5SHFy9sE4sdGuL8gFeyVhzb8rGc9q6qsu93tbunlL3957skQ4ffw3qseKYJEsp8HDjzwwNyQhM997nNp9913Tz/72c+q70S6P+umm27K533ta1/L3+neahiRMPSDN77xjXlGoHd54hOfmJ/nz9G7T4L0kRMee7X30u985ztp++23ryoHTfsNb3hD+tWvfjXvHiLSe65I1l/9roPvaRAoZZtssknadddd089//vN03XXX5anaeeedl+997bXXpi9/+cvpxhtvzJ8hDSVO5Vy0aFGWDqV3qVMwGW5OOeWUtMYaa1Tvtvnmm88jflK9faSE+4u4+GbspBJVGaussko6+uij52m83lv94Hv1RAhE09b56j1qBHxmzEbRYliA/De96U1pp512ytfwOyJ5gw02SGeeeWb+bo899khvf/vbq3K8973vTU960pMqncGHoEhYVDqZvjEkrLfeetW77rDDDrkcwrh7+0gIb9erTzvttLTyyitXFfCa17wm3XzzzdXv7YwZ6k0QCl75ylemLbbYotKOda2LZ6ZgD3vYw9L111+f78OcmrEb6BwIRtNmXv+ud70r/eUvf6mIeNvb3pYNMswCVIZ271zq9fx/0kknZUOP5vZvfvObq999eBg18UMnvI5sKpxplIim1zDdEaRN+7Xxr9+PXvKgBz0o3+tjH/tY/s57OeIcIEaxokEY11Dp5557bv5N2vpPfvKTLAVofK4fgP333z+XW+d2IqNdY6cOXvjCF84T8zwbqKHGewwbQyU8inABscqUhZd84AMfmD70oQ9Vv4mkeH3dPdUrIUIVx/SIaZSUNWnagLH0mc98Zn7GJz7xibTuuutmAwwQuR//+Mdzz0diAO7Fb9yP3v3a1742f+8Nspe6kJYvMEN47GMfWxmMsOB5fdTVxTAwNMK9gN6q0ZBFDJq4xHfU1OterlRpKHtowvTKNddcMxtlsH0DeqLGcYC2j+YMTj755Dx9oqeB22+/PVvkaIAocVjwUOL0PM5jfEfUA+kU/daLi3r+P+igg6q6efazn13VTRTxw8RQCPdCqaL/+Mc/pqc85SnVC51wwgnzzul2zCo1pG9+85vpne98ZzamMI9GbEusxzk4QwfjMoBYeuwNN9yQP3/4wx/O4hpxz/lo74j1W2+9Nf/+kY98JPdEFlC6KWs37xDFPNJPVsS11lqrGuZGpcUPTHipBzJWUni9BD0S9DMHjSJdYyvgeRpb9dmVOpS5zTbbLJ1zzjn5M5W56aabph/96Ef5M1M0rGZo05SNeTmNCZHOd/Q6iVtXJAepq1JvZxq69dZbV6t43niHPa4PRHip1WJdwr5M4ek9t912W/6+X020VEl6Fgsjn/rUp/L/NARpyGpUKERUpMZsrmPxxaUNiBY/yopp9/DDDy+ugg2KurGdRZ8oEfVOsS76Rd+Ee6FVwcxlVWAWGgS9VD8Fjj3cFTcWVpgnAxeB+h0ljTGbsVEV95vf/CZPtTR/jxKH+yAREPdID7cH+HsPijoFl7KpDjFCCcMivS/CS2Rjo1ZB99tvv+rcQQ0L8Vlu1oRIWciiJADY5llSlZ1c0gEiNW7HuT6/q4HoWdLYvTzDQCyz6gpFUnWJ0ik46f2iZ8JLZGNUUAEPOeSQ6txhWJFKhEvMYiCRM0K7aZAWPkSeRHgsX2no0DRv0Pfo9h01XDEzUJ0ydxcGJb0nwr1iVDBvjW95y1uqQg1LBJUIl8j+6le/ms4444z8v4t0nq3lTg4RLhJ9ZS2WUY2FZ+haPW9UhMf3VN0y+5BXDroHGHR46Zpwf1m1eG+FKlAke1BEMnyOzaJHHeFudfNVLu+90YSrZ+g6X5QZ1bw4vqv+6h1xrFAdswbv79pPA+yK8NJc+KKLLkp3vetdc0Fe9KIXVecNk+x4n7gixnxZc+Z+CYnXtavEUZJdKo/q2vWjT37yk/m7foeZrgkHEoF4ichUytRLGDbZupc/33sn82xZp2IvjUen72O5S+cN+93avbP+qs6xFmrhRXYNN8N2i46ER82Xz6xQyYath/p4OEzEl9f4DD7/+c9nXzNQskx1e8TndHPeqOH1rrpHY9d6BNNL0Gu9tyW8pKS9+tWvzg9lpQqPEDBKg38cW309/Otf//o8q9TShtjZwDbbbJPrn06n73uRrB0JBxovPvOZz1Rjidx+xjFl8Rd3Bwd3YxpXzxsXosRRp2LtQLZ3reKV7Al1qCU8jtusHOGZwoMwOYJRL+XFe7sDBN/9/ve/r1a+lmbC9d6s7gEsgZquYVgC3Y7nRcK9tUhc4BYkxwU/p5uHDII4hvsCCi+OHQAM2yd90ojaujtlsMiz6qqrVotTagjdiPZawoEqkbmunAwRKWBUSlpdWfRMV9rwdiWWzMszjahTGAHv68afubm57MSx/vrrZz99uYkBn5/XYQnCo6KAY6FaE94jwMftUaM0LXP/8XE1vFGj3dxf5mOWUfHAxRsWB05WC6VT8T/oJNprCY9a+ROe8IR554xy3C6Vx0W6SP7FL36Rrrnmmvx/nXPhNKDdlFA8LF68OG244YZZhMsPDhCGJf/3eI8S5hEeFTVCZhS0R7Ad6GeyPwhiBbgt/eyzz66kzjSP4aXx2nUVPHTocA95yENyYCSQlMXlW17AcvNqx9EShLt1Z5dddsk3kiN+N2PEsBErwwln+ZPoFLA0jOE+7RTZ6EyIcXq2Ytbk7BEXsHDHdu/atoTH3o2tnJsQLqupzyhMp50Qpyeaorhon6bxuxsFzYMdEdWYsYmGAQqtih60im1T7Fxd55xHuE/DnvzkJ+cb4FkJxqmoOUo9XGVh/JaIm5YxvM6UC3g3/OkAYhxr2kMf+tDsdwdkaHJ3MfVyXL3gi/N1j7aE64FAvXuFFVaopmHDcOLrB3G+7yIdo4OiSKZpDK+zX6ghY1DC2ZKefckll+TvEOPyoy8t1/KXgAt4IywalHp5Syf72P285z0vX/iqV72q9sJxIYp0F+V4n6r1T2MP93V3NWLIRrridy/9xEOo4jDgYzlu2PAG8XUOKFUP1wn4euMqy8H/YJIKUcm0Kg12HJa+YSMSTq+WpYzFKLxssXsQDw/8PUv38vrhXCVRkEEqSr5WnO+RYcH9qCbZu0Ec41yko7XK4NBELT32xNh4eQ+UML6DbCJzWK/QFJiGUHLvjvcFHloFf4RX6Tl+fss/YNEhdIcLSHADfJ15EigZXjRlQVHBgVLlbBK8zkpEuYKGBy0ZI+5zn/tUDZiGwHvGdf66Z0lCo+wtv/zyOUuVwqZ8uMsiXZWFIUNpNlSpk+zd8fkxXBjrE/Hd+q1paFdvEtV47ey88845SRFOmfrNvWa7Idx1MJIfwCPBFMAbTctPJCmduxpPWpyDSHi0ozd1Lh7FsFvQPP6OuHTWt0W23knv2q2e4sMys5c65a2lL3i4THSy6DRhXIzi0FeO8O0i+gQ0oawOb6jqqZRRRhUySuAPeK973avj8NkN6f48wrvIMAmXmtapflpqFawtcwLBd36DSfecdmM4QxBRpGCSY3idUhUlk8QzYzbJguhgCnRUWFPpPv5duzJ4LyfWHT6POuqo/FmNqSKcOTcnHHPMMflzKUvRJBAVHQ8mxJHPDUOTRDslTWv4lJ8x+znPeU66+93vXk2dPFjCr+8HqhskH3xicvVyZaWNB7GgzglNW4wo9RSRzrSl21Qcoy5jLKvDY9owaqGN4x8IlMBANvJ29+mmHGr4xLRjKWW1E7dywG+ZcNZXlc5S2YqaIM5VDv2VWFfF0DjlmD9p45CXUVYxLytTsBe84AU5xwxJAIBnm3IF1O/ZazmcN8Wcu99bJpzQWH7Ycccd8w+95DIZNUpjuJQ2YtHdbjzJMroBRFNHKWqQTWJA4ublVl033Rq03n0cV/CCwsAqwg844ID8A7HJKnSTCVf5UH488mSSZXSN3BslfyEbYwjJg4AsaH5tLwpaJ4hwtH94ZT1dyISTPsq9WpoyfoM6wpFCTD8IGfbzxlGeOq0caBahcZlku2Rq8ggZX8+u0+z7fR8fxzHXksaUsVwdo0WFMXZjilP4StNEulem9x5aMIn+wLhEeidCpFRipmZqxJjNkAm0vClRr/sMu669vkhH5k6OLdyE+IIUWG5ObQpi61eFAghXysxxjuFR6qhXiUQIxfmT3kUmKOAOmJ5lalSEq5craTEpQEELLZcvSFk1qgIMglIPV6UhnSYp0j25gCcPwKaBBU3Sx02k8V6jKqN0BPLEwO9hhx2WP7fIM+p5WSa9OhYR5+HtwoXHVR791fCipPqQTs/Gl4CNdgDfR3v2MMbqThDhzGLgF8seaEG0Zxfw3ChNQKxgjzwhJcYop2V1ypkPL24lY68ULGgkAuQz2rhbBoetoLUrt4YMImyV1xW0mHvzhSw/Tezh+hvDhcdheGlXF9K2IR2y0YbVsz0ebJTjdR0kVYhDk3Mj9dbCwZ0vfHmuaYRH0+q4woVjY4u9W2VhfGTqRS5XIKXMc83Edxk13MTKEIPkQd9prb322plwpZFo0hwclMZwDTtMI+fm5qrfRvlsiW/3HOUvVix6tjxvukkBPg7oOdgqMPrQIPm/hSEfwpWesomE6++4l0cj4ZIo6r0sPZLYCP1HJs3okDFq5axd2QF6BMuwlDMTDvusqMhDddLLjBFeUdHwgmcnqbv02zCeU6dY6bky67KjAXWH06AcErtxOBx3D6dcjN+I9SzSySRAdyesBTSRcK90t1X34gLU7bPqIG0c4DNAj9HeKCKbcyYRjlWCD4NY2+jUmXDEOQN6zHfWFJREunozGqhSYQ/aUNspaK584RhIz2azHCBN3FOR+P0mBX8+ijkdOxPOBqyYAJUEvqk93LVjiXSmkq4ZD/oc/dWUyi1pAMWMTfTw3RdKiyB+v0nBy4EzI2slmXBEE8neCK4HTSRcf+PSI4omCe3BMMdwX8+WgohyyHo2ZLt516+N95ok3PzLTAyOM+GEA9PLtZdWkwkfVrhwJwUtRoUQf40UxKFAjaFdIsB+yjRs6Pm8Ax6slZauraDYoRc0eVoWezjjt2Kwem2oTkgkyns2CfgR4/jq+wa23USETBIqE942LORU8/DHPe5xSzgvNukFIhnDCBduN02i4Si4j81mUdCIkffG1jQFrQR1ALyCaLAQjmLe0s5D2hez6bZ0F+UkBGCvUNBLD/d7uu+Zei5g/Rgxzj4k+i4G5k0D4bhxo6ETkUpDbilhq1JFNHG1LJpWBw0XjhJDG9PJ5RkPFcyl5D/zEKG6ezQNei+g5A5Mzfi+xS4GpeRuTUE0vLhIZ1uqTn70nRQrzaNFNh40iHHWtTX3joGVTVPQSohJFUnQBFr6QnnPx2n+6wYlw4uHC3eah7cjXNq4GhAZFBDjL3vZy+bFgsl27vdrMjRUAbkqKxFvC+2cL0jnOO4cbN2gJNL1MoxPpRjo0j1Kn/mrxsN2HohxXIplIlWM9rBNuKOG9B3AdmLwq90ZW7gI0arR5Hxf0Ka8WCTclavS6lTpev31KA+l2wDsK4IYF9lA53hulXbPaRK8jPiku79Dy+PKlCCnSVOzqKV7D//2t7+dd0UAncZwv9ZzoRG9iSvxPvvsM4/sdvdqMryDyAWdhRPtt5oDEZSvU92+SZp6HMNdiYrpszspaJqCiWx2LqRns0kPUxYZXUrKWVN7eOmd1WDpEHG4zoQrdeNzn/vc/GVTRbpHjvIdKa7UciMpJaLcgobRBts4Yxw9QdGdo9qFcFQovbc67HHHHZd5JbMHoP4y4VLcyA3WKVfnuOFlEOESz0R3yCpWIile65vjsCRM6C5zcHdfmrbxWohDH2DmBa/aIZmGkAmn0sjUy49KZdmUcTz2Vl+lYt8V3+Qmim9X0CTmzj333Ez2brvtVjUWnTuNZMchT3VD2Lf2RiG6COQeroogLxs/yhmvKRGk7QwvMVzYz3OHQ/VszmdXB/YFV8RKaTo3TaTHRi4Jff7552c+SabvhqMq5Ye2lVTI0aRyq0aUDC9qjESesDig3+P0zcmmZ6OgkTWJa9pZ0Py5TUecdkpqHXjggZnPvffeO3+WBKyyOLHVBaKOk5q0y0Ad4ZQtbkUZW7sIPe+883LPxryo80tJdKYRXnZPQKAEix5gAlo+yNP6PbFP0/K0lcKFWcJUWQXvvcS8M5aR/E7SQA6JSwvh+ushWPCIXhZTabckCoB2smW3nElES5QQe64rJliPFI6r+C6fljAPxScbbVW5a0S0lLlpE+ERPhTpvZVgsbTb0bwefuONNyYFJrBFFJi0tl7q4SKd1ouI9nBdjWH4utGzn/rUp1YOmiUL2tJCuDgkGofhy3ePdOlXJddVZbC/CSfvv//+1cmT7OXtDC+ktMCfnv8Zk6Whsl0EWYnZpxPjjCtv06yglaD3EKkMcdrArrTRfZUvXYTTs7kAP6i418kkEMW5j8+kv5I5WNMsFvwhe/vtt89kAy1x6j5L60HdKDi0tLk8aMVKAGyswkWLFi0qXjROOOExXBixrcxIAIcIPDSJhVa+GtnOm7Q+MGyodysbNg2e4RnEzloR7hdSiVzInhsa/2TSnOTh/uJxIYQksuSpYW9UppjAfdWki5R6RbseM8reOIxrVTdgyy23nLcxUamjLrGrkVqFvFk1RWsiGL85rrzyyqyNb7zxxlWMnEd5+jq6yI9hv55OS0qgK4kez+aavptuVcE+C9D3fk2cKfgaQfzfr1fZ/NmSduRtVdjY4sWL83eloXiJfcvUy/Ht0m70iEoiU4gwJZ5rUgfeLRzXXXdd1i/IfcY69kYbbZTJlhj3RLWSDCLDLXUeUqQGr0ah3qOGoXPc7u7fgxj7FpXM0v/uEatrVRZ38hDZsRGJVCyk8IWFzXmMw3BxZ0JAC0fT4yYEKxCfxM53j3jEIyZ2sIHLeuutl6MhsRWwzksoLKmpWBsnexK2BMAcnRkHf3l5hil81XDyoKLwhcPPi01bMcgceeSROdiAsY8hAbGIdGPad/XVV+eca6w6UdkohnjHYMXiM72LhieHSrxemeUgeXD+51nMiUlyizmYjBEEI/IslndJKnDCCSfkOicCiGR+3IPGxj25t9Js48f30pe+NOddYzjDJK7UXCjanki3pHcV9x5V61BKLw7SP+HkRyQGCxaTOng+PRu/cciFMCoVYohEYQde3gN3LbbHoFJ5HyoWkzEVzmfOQ1pwLXN37oME0/QOKcJ3kMA5nItU4Vo2EyAhMcMHn5kN8Cy+59l8z+8Ye7h+bm4u34/lXD5zXyQWz+U7fsM/j8bDsygn5aVhUn7uhS4FiTyLz3zPZ8qFkgZHHtFa6t1LEO69PK6pspzYNFAp2vPEjQvRwBLHMv/d37V0bqy0Tvf2zxpC/Df/PRq1Svfy3/1eGrshGX5WX331ap2g3cJX7XbSujktCAdHbuqZgCehpWv8dTdlRCEo5S+NplP/7JUftV3/XNKG6+416LO7eZb0CEBjJ0gQbjSUdfI8XoJwP1kXk8tEqZ98HXlUU5a6IwYTMt7JBOwVVHof/94rL55fd27pc10vqrtf3f/dXOuf9a5sfeUxBe16tlBLeJymoQlzc5QVEOe1o0LsJdKOS+HC/TSifq+bxAHUu7Ewwgd+eegE4sTro4Qi4X6Rejl+b8SR8xCiVfzhoyTdSYk9HO1Z6cZKc86lBZELZhoE+MOFe+36uXWoJbz0IKYpPATPESq7lwf1i9gThxEuPE1wKQsYUpkewwP+C/qtW2nbFeF+o5122qnaBC067o+CdH8RN04AFEo56C2NPTw2dLDHHntUzg2sFoJe6r8t4X4T3ZT5nzxccfPVOe2UpkHgjU0WJvXyUT2zCXCyNXQizah34r0x/oBeJWxHwv1mujmeJBrPtW3lqALu/F7RfoxLtRb568KDphElJY0oGRnBTj/99Hm/9aJDdU14LABZg1UAD9kdNulRrHlAAaZNJTJYWsbwUl2TApteLYsn6HeW1BXhXhAfT6TEcWDTVSGHSXqcHnowIXZjTJT6bdpRIhsdhUxb1DFhUfG8Xuu4a8L95j5my/+ZxG/aNHWYpEfCew0XnhaUyKYxs1pJ/eLBEzX2ft65J8L9IW7ukx8cc0PMnWBY4j02Mvd4QXHRKtI0j+FePyKbpIMim6VfOWcO2sB7Jtwf5mKUyFOJd1a09Lu3xn4KGcdw7ufhwnrWNI7hUTSLbFy3WOqkLnFEUaKGYfjR90W4HgqcdPV0DtJLC4MUtDQtk/RgiigPl2kT6aWhCuCXRqprhX2xfAqGFTQxEOEl0pmmiXS5OoN+x/VIePRLV4VME+H+Ti6ZyOequttzzz2XOGcYJuy+CY8F8DGdqZIKvsUWW6S5ubn8vXy14rXdPkNi3SNPtCw4DWN4nQin0Sr5jm8OC6J79aAYiPBYEBdNBN3j9aptqqVcgVJ6jm7uHw0v7IagHfeaPoaX3gNcccUV2W1LZCt4P1ovhyXBBiZccAJV+Xik7LDDDtXL4CfmYqqbFyoZXjQ84ELU1MT+Ql2vBrhsyYEBf3q3Go6CbDA0wkFpegFw2hPprKtf8P+7GOu8dr29HeH4p3HEZzcBkWiXQPjOyXWMAydERcmMOmnvUAkHUXQJhLBqXsmBRq+AAVAn5v2lo0gnyL9pIr1EtOqBcjN7IS+evEwV7gz8HUbVgIdOOKhr3Szn4TEj0hnjlbJDcB9xP3SvpiptsbzegAGNU1s7ay17sQUMDFs5q8NICBe84N56EembbbZZ9fIYF+SHLUSnROCRHvyOdjvJaVlsjLIEOsg+Id8zDjIzyBoJelFgh4GREg6iFu8VAsnaGZEDbRXLmbIW+DUecaFKwldb0SbjJDwS5GJbYFaioEwOEtSjy7gT6Lh6tWPkhIOSiNdneihbQ93//vevKofMQ8cee2y1eZ6gzMeyK4/LtBoJ9jAjBzoJOoVCdhXrRcSL8uaorOPs1Y6xEC6001yJ2mBdfcMNN6wqCxMj4pCIF4W/Ohga4q7Ig1Rk6fpIcLwn0giFFMOJMi9IPzn44IMro5PKOKrpVrcYK+FCOzGPmKMC8Z2TVw0HqUjIiYqSxrJhXfqOGKlZChIoHTHYwcmJYApFPBkWMbl76dhggw1ycIQ30LiMO8kp5EQIF0q9yEGgweGHH54DCb1S6fnM59mPhB7OON6LSO+lwiEK6YPyRVlII6L0ZjqI7aIxMmvwRqJGU5pxTAoTJVwoTWm84uhxRFHSo4gg9cpWA1hnnXWyVDjggANyNkmkBNGbithk3I/ZJXkO3xPAR6MhSA8nDsybOHaQsZEhJhKsHCpEcaJxKx2Y3zeGB02aaKERhAvt5twCpOETz7hOePCmm26a/eQjITpwyiA2joxOTIlwryZTAhKCRkLv5Ho59pcOhhZCk0lPiuM/SYO0Ji94QoBRWsoGRaMId8TeUSJfYLwktyjLi/RwtuaCWCx7WLW04wOk4ooFgfzlM7ZspkycA/mMwbgTEZNNTB06A7OF0rM9W0MTe3MJjSVcKGnOddMiB2RIXOtgDsyBZq3//XemiJ3uGfPFxDI2HY0nPKKuAbh2PWjlS6K4tj6tBEdMHeEl1M2fh3HonksLlgrCZ+geM8IXGGaELzDMCF9gmBG+wDAjfIFhRvgCw4zwBYYZ4QsMM8IXGGaELzDMCF9gaAThvSx8lM7v9tp25/p9O5UtPrubc5uCRhAOOlVKdH3y83up0Lpz292jjthBz50EGkG49wSS0+O4IB907TPiKHmAyl9duwrHQ3uY+DM5n+d108NpaLp/fHY8V1Exo05L2g8aRTgeKESfrLrqqtktGT9v/uIKvNVWW2WvUXYOANHrBL9w4tBxU+KvH2yAgzsTOynoeXi9EPVC0IBv6BYhicJuC9yHzAw6N56viFn8qYPwSgAAA6ZJREFU6/GF0zaZTQl0BI0inFhvxUuTOYJQHf6uv/762QeN71dYYYV5cdS6FvdhfsfLlLg1Mh9tsskm+WAfM+7hMV00LnzbIFFbYZUIl1S4/PLL8/0pk86tI5yGybn42Pn3TUCjCIcEHArZVCcGARD8TxZCKnK11VbLPmhA5ynxAK7J7eBZifUsF9MRnqlBiXZ0bh3h2lBAYVAzwgOccLxL8TZVr4v7ftBbqUwiP4DEJZ6mfA8xoG5jutKzeiF82223rc6tI5wdkjx9x4zwgG4I1zjL1lOl3iPCEb1AGr0fM8KnhHBPxke0B5XJRnogEt5JpM8IbwAiCYzRJc2WcZvkN1SmkuqKEBFOSm2gKZQfsx7eUMIhVZu8QRypQtDMH/OYx+SKRAsGrqVLaSPzsB/kUSGqhKmdgvH9WTPCJwCflrFLjwIEFRqkVJSQp/zowBU69XBixrbeeuscP8YUivk70zQCDZUeBAybcP6fEd4lVHGIbObZEEzSm1122SXtvvvuOSMEFXjaaafl82LiHyDCCTFuB5+WzQifEFykY3hhbuwgWpMKZH9wYrVB1LpHPS0jUX2vhM/m4TUokaA8LpqOkaiXSvTtksdBuCQCm8Fxf0yxOjceIlabBsxMqzVoNy1TDyPNBnZxJ9UDB0U4e50DRXn64WO+P4uxXatxpWsA55C3hVhyJQBQggEOD2dGb6AsbCjn79AENJZw73WqSKWXllgtKW2eLakEH8NLw0cJej7ZmHjGoYceWnsuSYVl04/v1wQ0jnCUNrZGLi1DQpamZr6pDiAJgAwyWNvYaottKjkuvvjivF2GkunrWcwIWJkjmQDnswk75/khmz0gfQiLLTyHjJIYebgPww+reMcdd1yVNYJdDUCTejdoBOHqdVQulcW8Oa5gebpNzmG6ptSVgNWxupQdOsgHp3syz+90Pscll1ySr5EuAcme7prtpTxdCMuzpPUGTdyApxGEuxMDK03HH3/8ErsAeE9nXZv8LmyAK5DVkdW0I444Ihtm/OA7UnfrfO6DBGEbrkWLFhWv0XWe6VEEIlVYat1vv/1yVuQdd9wxJwsm74wkQlPSdEU0gnDQztvE/8bz4mpaJ/Szv5nfvxsRHT1rmoRGEO6E0ntKOcP9r7ayijnR+E7Xx8NdpXwa1ekoNTaVwVfk/HM8v0loBOHThEh8HG6aSrQwI3yBYUb4AsOM8AWGGeELDDPCFxhmhC8wzAhfYJgRvsAwI3yB4f8AZs0JW/yZscgAAAAASUVORK5CYII=;" vertex="1" parent="1">
          <mxGeometry x="892" y="136" width="34" height="46.61" as="geometry" />
        </mxCell>
        <mxCell id="Ls8tjAH7kymWJmCwIJN0-41" value="" style="endArrow=classic;html=1;rounded=0;shape=flexArrow;fillColor=#d5e8d4;strokeColor=#82b366;" edge="1" parent="1">
          <mxGeometry width="50" height="50" relative="1" as="geometry">
            <mxPoint x="160" y="189.7" as="sourcePoint" />
            <mxPoint x="210" y="190" as="targetPoint" />
          </mxGeometry>
        </mxCell>
        <mxCell id="Ls8tjAH7kymWJmCwIJN0-42" value="Input&lt;div&gt;(478, 2)&lt;/div&gt;" style="text;html=1;align=center;verticalAlign=middle;resizable=0;points=[];autosize=1;strokeColor=none;fillColor=none;" vertex="1" parent="1">
          <mxGeometry x="100" y="170" width="60" height="40" as="geometry" />
        </mxCell>
      </root>
    </mxGraphModel>
  </diagram>
</mxfile>
